<svg width="100" height="100" viewBox="0 0 100 100" fill="none" xmlns="http://www.w3.org/2000/svg">
<path d="M50.6139 8.17565C50.2037 7.94116 49.6988 7.94147 49.2889 8.17647L15.8237 27.363C14.9448 27.8669 14.9383 29.1242 15.812 29.637L49.2772 49.2783C49.693 49.5223 50.2095 49.5226 50.6256 49.2791L84.1873 29.6378C85.0629 29.1254 85.0564 27.8657 84.1756 27.3622L50.6139 8.17565Z" fill="#ED4E01"/>
<path d="M14.9956 31.3343L48.5253 50.7265C48.9367 50.9644 49.1902 51.4041 49.1901 51.8799L49.1894 90.6661C49.1893 91.6915 48.081 92.3323 47.1944 91.8195L13.6648 72.4267C13.2534 72.1887 13 71.7491 13 71.2733L13.0008 32.4877C13.0008 31.4624 14.1091 30.8216 14.9956 31.3343Z" fill="#ED4E01"/>
<path d="M83.0707 68.6959C83.0707 69.4617 82.6628 70.1699 81.9993 70.556L58.5314 84.2131C57.091 85.0513 55.2815 84.0156 55.2815 82.353L55.281 54.9957C55.2809 54.2299 55.6888 53.5216 56.3523 53.1355L79.8203 39.4787C81.2606 38.6405 83.0701 39.6762 83.0701 41.3388L83.0707 68.6959ZM51.3515 53.759V90.6779C51.3515 91.6783 52.4094 92.3094 53.2755 91.8441L53.3167 91.8212L84.8402 73.4231C86.7307 72.3462 87.0008 71.5385 87 69.9325L87 33.0144C87 31.9982 85.9081 31.363 85.0348 31.8712L53.5114 50C52.4311 50.8077 51.3507 51.6154 51.3515 53.759Z" fill="#ED4E01"/>
<path d="M85.9204 37.6237L55.7253 87.6923L52.9712 86.0686L83.1664 36L85.9204 37.6237Z" fill="#ED4E01"/>
</svg>

