<svg preserveAspectRatio="none" width="100%" height="100%" overflow="visible" style="display: block;" viewBox="0 0 67 30" fill="none" xmlns="http://www.w3.org/2000/svg">
<g id="dify-logo-dark-mode 1" clip-path="url(#clip0_108_2702)">
<path id="Vector" d="M29.5904 5.25152C31.4914 5.25152 32.1968 4.07737 32.1968 2.62576C32.1968 1.17415 31.4948 0 29.5904 0C27.686 0 26.984 1.17415 26.984 2.62576C26.984 4.07737 27.686 5.25152 29.5904 5.25152Z" fill="var(--fill-0, #0033FF)"/>
<path id="Vector_2" d="M7.90982 0.00337409H0V24.3763H7.90982C17.6804 24.3763 20.4715 18.7525 20.4715 12.1881C20.4715 5.62372 17.6804 0.00337409 7.90982 0.00337409ZM8.00385 20.6271H4.46712V3.75253H8.00385C13.623 3.75253 16.0077 6.53056 16.0077 12.1881C16.0077 17.8457 13.623 20.6237 8.00385 20.6237V20.6271Z" fill="var(--fill-0, black)"/>
<path id="Vector_3" d="M38.7093 5.8166V7.50506H34.4303V11.2542H38.7093V20.6305H31.6359V7.50169H22.3322V11.2508H27.5416V20.6271H21.3985V24.3763H49.313V20.6271H42.8003V11.2508H49.313V7.50169H42.8003V3.75253H49.313V0.00337409H44.4729C41.2921 0.00337409 38.7025 2.61222 38.7025 5.8166H38.7093Z" fill="var(--fill-0, #0033FF)"/>
<path id="Vector_4" d="M62.58 7.50169L58.8585 19.6898L55.137 7.50169H50.717L56.1142 23.2664C56.6753 24.9075 55.7246 26.2508 54.0017 26.2508H52.1106V30H54.8918C57.3168 30 59.5 28.4537 60.3194 26.1561L67 7.50169H62.58Z" fill="var(--fill-0, black)"/>
</g>
<defs>
<clipPath id="clip0_108_2702">
<rect width="67" height="30" fill="white"/>
</clipPath>
</defs>
</svg>
