<svg preserveAspectRatio="none" width="100%" height="100%" overflow="visible" style="display: block;" viewBox="0 0 86.7856 30" fill="none" xmlns="http://www.w3.org/2000/svg">
<g id="Group 39521">
<path id="Vector" d="M70.1784 26.2504V4.01825H78.2926C80.7342 4.01825 82.618 4.54756 83.9441 5.6063C85.2701 6.64371 85.9331 8.07303 85.9331 9.89387C85.9331 11.2278 85.5858 12.2971 84.8912 13.1016C84.2176 13.8851 83.302 14.4356 82.1444 14.7531C83.0284 14.9014 83.8178 15.1767 84.5124 15.579C85.2069 15.9812 85.7542 16.5423 86.1541 17.2623C86.5751 17.961 86.7856 18.8397 86.7856 19.8983C86.7856 21.8674 86.0804 23.4237 84.6702 24.5671C83.2811 25.6893 81.2499 26.2504 78.5767 26.2504H70.1784ZM73.8093 23.1697H78.6083C80.0607 23.1697 81.1657 22.8838 81.9234 22.3121C82.6811 21.7193 83.0601 20.9041 83.0601 19.8665C83.0601 18.7867 82.6706 17.9504 81.8918 17.3575C81.113 16.7646 80.0185 16.4682 78.6083 16.4682H73.8093V23.1697ZM73.8093 13.451H78.3873C79.6501 13.451 80.6184 13.1652 81.292 12.5935C81.9656 12.0218 82.3023 11.2384 82.3023 10.2432C82.3023 9.2481 81.9656 8.47528 81.292 7.92477C80.6184 7.35307 79.6501 7.06728 78.3873 7.06728H73.8093V13.451Z" fill="var(--fill-0, black)"/>
<path id="Vector_2" d="M52.2321 26.2496V23.3795L60.8031 15.9944C61.4828 15.4139 62.0881 14.8442 62.6192 14.2851C63.1502 13.7262 63.5644 13.1457 63.8618 12.5438C64.1592 11.9202 64.3078 11.2538 64.3078 10.5443C64.3078 9.25432 63.9149 8.26533 63.129 7.57737C62.3642 6.88941 61.3446 6.54537 60.0702 6.54537C58.7957 6.54537 57.7655 6.95395 56.9796 7.77084C56.1937 8.58787 55.8006 9.69503 55.8006 11.0926V11.4795H52.264V10.899C52.264 9.45854 52.5826 8.19017 53.2198 7.09364C53.8572 5.97572 54.7599 5.09416 55.9281 4.44922C57.1176 3.80428 58.4983 3.48175 60.0702 3.48175C61.7483 3.48175 63.1608 3.77202 64.3078 4.35242C65.4761 4.93296 66.3576 5.73923 66.9524 6.7711C67.5683 7.80311 67.8764 9.00707 67.8764 10.3831C67.8764 11.501 67.6746 12.5008 67.2711 13.3822C66.8674 14.2423 66.3046 15.0591 65.5824 15.8332C64.8814 16.5856 64.0742 17.3489 63.1608 18.1229L57.2344 23.1215H68.0356V26.2496H52.2321Z" fill="var(--fill-0, black)"/>
<path id="Vector_3" d="M35.0891 26.2504V4.01825H49.7053V7.25781H38.7671V13.4192H47.7863V16.5635H38.7671V23.0108H50.089V26.2504H35.0891Z" fill="var(--fill-0, black)"/>
<path id="Vector_4" fill-rule="evenodd" clip-rule="evenodd" d="M23.9943 20.4356C23.7964 20.4356 23.6727 20.6514 23.7717 20.8239L25.8422 24.4345C25.9567 24.6342 25.7742 24.8737 25.5529 24.814L19.2734 23.1199C18.9991 23.0458 18.717 23.2098 18.6436 23.486L16.961 29.8081C16.9016 30.0308 16.6045 30.0702 16.49 29.8705L14.4191 26.2592C14.3201 26.0867 14.0726 26.0867 13.9737 26.2592L11.9029 29.8705C11.7883 30.0702 11.4911 30.0308 11.4318 29.8081L9.74908 23.486C9.67568 23.2098 9.39361 23.0458 9.11926 23.1199L2.8398 24.814C2.61855 24.8737 2.43599 24.6342 2.55054 24.4345L4.62102 20.8239C4.72001 20.6514 4.59634 20.4356 4.39835 20.4356H0.257631C0.0285604 20.4356 -0.0861551 20.1568 0.0758324 19.9937L4.67283 15.3657C4.87365 15.1635 4.87365 14.8358 4.67283 14.6336L0.0758324 10.0054C-0.0861551 9.84232 0.0285731 9.56353 0.257644 9.56353H4.39797C4.59582 9.56353 4.71963 9.3479 4.62064 9.17524L2.55054 5.56553C2.43599 5.36582 2.61855 5.12638 2.8398 5.18604L9.11926 6.88017C9.39361 6.95407 9.67568 6.79021 9.74908 6.51401L11.4318 0.191934C11.4911 -0.0308302 11.7883 -0.070216 11.9029 0.129509L13.9736 3.74069C14.0726 3.91335 14.3201 3.91335 14.4191 3.74069L16.49 0.129509C16.6044 -0.070216 16.9016 -0.0308302 16.9609 0.191934L18.6436 6.51401C18.717 6.79021 18.9991 6.95407 19.2734 6.88017L25.5529 5.18604C25.7742 5.12638 25.9567 5.36582 25.8422 5.56553L23.7721 9.17524C23.6731 9.3479 23.7969 9.56353 23.9947 9.56353H28.1352C28.3643 9.56353 28.479 9.84232 28.317 10.0054L23.72 14.6336C23.5192 14.8358 23.5192 15.1635 23.72 15.3657L28.317 19.9937C28.479 20.1568 28.3643 20.4356 28.1352 20.4356H23.9943ZM22.4139 10.5125C22.6 10.3252 22.4196 10.0108 22.1656 10.0794L16.5736 11.588C16.2993 11.6619 16.0174 11.498 15.9438 11.2218L14.4447 5.58922C14.3767 5.33346 14.016 5.33346 13.948 5.58922L12.4489 11.2218C12.3753 11.498 12.0934 11.6619 11.8191 11.588L6.2274 10.0794C5.97323 10.0108 5.79299 10.3252 5.97902 10.5125L10.0724 14.6336C10.2732 14.8358 10.2732 15.1636 10.0724 15.3658L5.97799 19.4878C5.79196 19.6751 5.97233 19.9893 6.22637 19.9209L11.8191 18.4121C12.0934 18.338 12.3753 18.502 12.4489 18.7781L13.948 24.4108C14.016 24.6666 14.3767 24.6666 14.4447 24.4108L15.9438 18.7781C16.0174 18.502 16.2993 18.338 16.5736 18.4121L22.1665 19.9209C22.4206 19.9895 22.6009 19.6751 22.4148 19.4878L18.3205 15.3658C18.1196 15.1636 18.1196 14.8358 18.3205 14.6336L22.4139 10.5125Z" fill="var(--fill-0, black)"/>
</g>
</svg>
