<svg preserveAspectRatio="none" width="100%" height="100%" overflow="visible" style="display: block;" viewBox="0 0 40 40" fill="none" xmlns="http://www.w3.org/2000/svg">
<g id="fal-image 1" clip-path="url(#clip0_1_1009)">
<path id="Vector" fill-rule="evenodd" clip-rule="evenodd" d="M25.795 0C26.4867 0 27.0433 0.563333 27.1083 1.25333C27.3997 4.24187 28.7199 7.03647 30.8433 9.15955C32.9666 11.2826 35.7614 12.6024 38.75 12.8933C39.4383 12.96 40.0033 13.515 40.0033 14.2067V25.7933C40.0033 26.485 39.44 27.04 38.75 27.1067C35.7614 27.3976 32.9666 28.7174 30.8433 30.8405C28.7199 32.9635 27.3997 35.7581 27.1083 38.7467C27.0417 39.4367 26.4867 40 25.795 40H14.2083C13.515 40 12.96 39.4367 12.8933 38.7467C12.602 35.7584 11.2821 32.964 9.15906 30.8409C7.03601 28.7179 4.24161 27.398 1.25333 27.1067C0.563333 27.04 0 26.485 0 25.7933V14.2067C0 13.515 0.563333 12.96 1.25333 12.8933C4.24161 12.602 7.03601 11.2821 9.15906 9.15906C11.2821 7.03601 12.602 4.24161 12.8933 1.25333C12.96 0.563333 13.5167 0 14.21 0H25.7933H25.795ZM8.03167 19.9667C8.03079 21.5484 8.34149 23.1147 8.94602 24.5763C9.55055 26.038 10.4371 27.3662 11.555 28.4851C12.6728 29.6041 14.0002 30.4919 15.4612 31.0979C16.9222 31.7038 18.4883 32.016 20.07 32.0167C21.6517 32.016 23.2178 31.7038 24.6788 31.0979C26.1398 30.4919 27.4672 29.6041 28.585 28.4851C29.7029 27.3662 30.5895 26.038 31.194 24.5763C31.7985 23.1147 32.1092 21.5484 32.1083 19.9667C32.1083 13.31 26.7183 7.91667 20.07 7.91667C16.8758 7.91843 13.813 9.18892 11.5554 11.4487C9.29786 13.7085 8.03034 16.7724 8.03167 19.9667Z" fill="var(--fill-0, #EC0648)"/>
</g>
<defs>
<clipPath id="clip0_1_1009">
<rect width="40" height="40" fill="white"/>
</clipPath>
</defs>
</svg>
