<svg preserveAspectRatio="none" width="100%" height="100%" overflow="visible" style="display: block;" viewBox="0 0 206.513 32" fill="none" xmlns="http://www.w3.org/2000/svg">
<g id="Frame 54">
<path id="Vector" fill-rule="evenodd" clip-rule="evenodd" d="M16.264 0H47.7333C56.704 0 64 7.17867 64 16C64 24.8213 56.704 32 47.736 32H16.2667C7.296 32 0 24.8213 0 16C0 7.17867 7.296 0 16.264 0ZM30.7147 24.8C31.1093 25.2107 31.6933 25.1893 32.2107 25.0827L32.216 25.0853C32.456 24.8933 32.1147 24.6507 31.7893 24.4187C31.592 24.28 31.4027 24.1467 31.3467 24.0267C31.528 23.8133 30.992 23.32 30.576 22.9387C30.4337 22.8165 30.3 22.6847 30.176 22.544C29.8827 22.2267 29.7627 21.8293 29.6427 21.4293C29.5627 21.1627 29.4827 20.896 29.3493 20.6507C28.5387 18.8 27.608 16.9627 26.3013 15.3973C25.4613 14.3573 24.504 13.424 23.5467 12.4907C22.9244 11.8944 22.3171 11.2826 21.7253 10.656C21.1227 10.0453 20.76 9.29333 20.3947 8.53867C20.0907 7.90933 19.7867 7.27733 19.3387 6.72533C17.9867 4.76533 13.72 4.22933 13.0933 7.00267C13.0933 7.088 13.0667 7.14133 12.9893 7.19733C12.6427 7.448 12.336 7.73067 12.0773 8.06933C11.4427 8.93867 11.3467 10.408 12.136 11.1893L12.1387 11.1387C12.1653 10.7467 12.192 10.376 12.5093 10.096C13.1173 10.6107 14.0453 10.7947 14.752 10.408C15.6053 11.608 15.8773 13.0613 16.152 14.5147C16.3787 15.7307 16.6053 16.9467 17.1707 18.024L17.208 18.0827C17.5387 18.624 17.8747 19.176 18.3013 19.648C18.4587 19.8853 18.776 20.1387 19.0933 20.392C19.512 20.7253 19.9307 21.0587 19.9707 21.3493V21.7307C19.968 22.4907 19.9653 23.2773 20.4613 23.8987C20.736 24.4453 20.0613 24.992 19.5227 24.9253C19.224 24.9653 18.9013 24.888 18.5787 24.8133C18.1387 24.7067 17.7013 24.6053 17.3467 24.8053C17.2453 24.912 17.104 24.912 16.96 24.9173C16.7893 24.9227 16.616 24.928 16.5147 25.104C16.4933 25.1547 16.4453 25.2107 16.3947 25.272C16.2827 25.4053 16.1627 25.552 16.3067 25.6613L16.3467 25.6347C16.5653 25.4693 16.7733 25.3147 17.0667 25.4107C17.0293 25.624 17.1707 25.6827 17.312 25.7387L17.384 25.7707C17.381 25.8209 17.3739 25.8709 17.3627 25.92C17.3387 26.04 17.3173 26.1547 17.4107 26.2587C17.4544 26.2131 17.4953 26.1651 17.5333 26.1147C17.632 25.992 17.728 25.8693 17.904 25.8213C18.288 26.328 18.6747 26.1173 19.16 25.856C19.7093 25.56 20.384 25.1947 21.32 25.7093C20.96 25.6933 20.64 25.736 20.4 26.0293C20.3387 26.0933 20.288 26.168 20.3947 26.2533C20.9467 25.9013 21.1787 26.0267 21.3947 26.1467C21.5547 26.232 21.7013 26.3147 21.96 26.2107L22.1467 26.1147C22.56 25.8933 22.984 25.672 23.4773 25.7493C23.1067 25.8533 22.976 26.0827 22.832 26.3307C22.7627 26.456 22.688 26.584 22.5813 26.704C22.5253 26.76 22.5013 26.8267 22.5627 26.9173C23.336 26.856 23.6293 26.664 24.024 26.4053C24.2107 26.2827 24.424 26.1413 24.72 25.9947C25.0507 25.7947 25.3813 25.9227 25.7013 26.048C26.048 26.1813 26.3813 26.3093 26.6907 26.0107C26.7893 25.9227 26.912 25.92 27.0347 25.92C27.0773 25.92 27.1227 25.92 27.168 25.9147C27.0693 25.408 26.528 25.4133 25.9733 25.4187C25.3333 25.4267 24.6853 25.4347 24.7067 24.648C25.2987 24.2507 25.304 23.5627 25.3093 22.912C25.3093 22.752 25.3093 22.6 25.3227 22.4507C25.7573 22.6907 26.2187 22.8773 26.6773 23.0613C27.1093 23.2347 27.5387 23.408 27.9413 23.6213C28.3627 24.288 29.0187 25.168 29.8933 25.1093C29.9147 25.04 29.936 24.984 29.9627 24.9147C30.0133 24.9253 30.0667 24.936 30.12 24.952C30.3493 25.0053 30.5947 25.0667 30.7147 24.8ZM47.8587 17.256C48.3653 17.752 49.0507 18.0293 49.768 18.0293C50.4853 18.0293 51.1707 17.752 51.6773 17.256C51.9271 17.0133 52.1258 16.7232 52.2618 16.4026C52.3978 16.0821 52.4683 15.7375 52.4693 15.3893C52.4683 15.0411 52.3978 14.6966 52.2618 14.3761C52.1258 14.0555 51.9271 13.7654 51.6773 13.5227C51.3043 13.1586 50.835 12.909 50.3246 12.8031C49.8143 12.6973 49.2843 12.7397 48.7973 12.9253L47.2507 10.7093L46.1707 11.4347L47.7253 13.6613C47.2818 14.163 47.0483 14.8161 47.0731 15.4853C47.0979 16.1545 47.3792 16.7885 47.8587 17.256ZM43.0133 10.0827C43.4616 10.2997 43.9604 10.3908 44.4564 10.3462C44.9525 10.3015 45.427 10.1229 45.8293 9.82933C46.2891 9.49456 46.6285 9.02042 46.7973 8.47733C46.9644 7.9364 46.9494 7.35559 46.7547 6.824C46.5569 6.28973 46.1922 5.83341 45.7147 5.52267C45.1838 5.17441 44.5484 5.02126 43.9171 5.08934C43.2858 5.15743 42.6978 5.44255 42.2533 5.896C41.9647 6.19425 41.7508 6.55651 41.6289 6.95322C41.507 7.34993 41.4807 7.76984 41.552 8.17867C41.6271 8.58626 41.798 8.97016 42.0507 9.29867C42.304 9.632 42.6347 9.89867 43.0133 10.0827ZM43.0133 25.4213C43.4617 25.6378 43.9604 25.7286 44.4564 25.684C44.9523 25.6393 45.4268 25.461 45.8293 25.168C46.2891 24.8332 46.6285 24.3591 46.7973 23.816C46.9644 23.2751 46.9494 22.6943 46.7547 22.1627C46.5569 21.6284 46.1922 21.1721 45.7147 20.8613C45.1839 20.5126 44.5485 20.3591 43.917 20.4272C43.2856 20.4953 42.6975 20.7808 42.2533 21.2347C41.9646 21.5328 41.7505 21.895 41.6286 22.2918C41.5067 22.6885 41.4804 23.1085 41.552 23.5173C41.6271 23.9249 41.798 24.3088 42.0507 24.6373C42.304 24.9707 42.6347 25.2373 43.0133 25.4213ZM45.4933 16.0453V14.7333H41.36C41.2553 14.3334 41.057 13.9641 40.7813 13.656L42.3387 11.3973L41.2053 10.6613L39.6507 12.92C39.1741 12.754 38.6608 12.7234 38.1679 12.8317C37.675 12.94 37.2218 13.1829 36.8587 13.5333C36.6099 13.7743 36.4118 14.0627 36.2763 14.3815C36.1407 14.7003 36.0704 15.0429 36.0693 15.3893C36.0693 16.0853 36.3547 16.7547 36.8587 17.2453C37.2218 17.5958 37.675 17.8387 38.1679 17.947C38.6608 18.0553 39.1741 18.0247 39.6507 17.8587L41.2053 20.1173L42.3253 19.3813L40.7813 17.1227C41.057 16.8146 41.2553 16.4453 41.36 16.0453H45.4933Z" fill="var(--fill-0, #1E1E1E)"/>
<path id="Vector_2" fill-rule="evenodd" clip-rule="evenodd" d="M147.843 5.506C146.48 4.506 144.598 4 142.254 4C140.564 4 139.025 4.368 137.681 5.092C136.339 5.81368 135.232 6.90383 134.489 8.234C133.713 9.595 133.321 11.258 133.321 13.178C133.321 14.643 133.553 15.961 134.012 17.095C134.469 18.226 135.115 19.195 135.927 19.974C136.745 20.7547 137.714 21.3597 138.775 21.752C139.89 22.1601 141.07 22.3647 142.257 22.356C144.097 22.356 145.698 21.986 147.017 21.257C148.305 20.5584 149.364 19.5046 150.07 18.221C150.778 16.934 151.137 15.441 151.137 13.783C151.137 13.735 151.132 13.583 151.124 13.328C151.119 13.1621 151.11 12.9963 151.095 12.831H144.441V14.993H147.858L147.843 15.092C147.681 16.119 147.361 16.989 146.893 17.677C146.437 18.3531 145.802 18.8896 145.06 19.227C144.317 19.565 143.434 19.732 142.46 19.723C141.152 19.707 140.045 19.424 139.172 18.882C138.298 18.3395 137.611 17.5434 137.202 16.6C136.77 15.634 136.552 14.482 136.552 13.176C136.552 11.87 136.773 10.711 137.207 9.733C137.647 8.751 138.307 7.976 139.177 7.433C140.047 6.891 141.154 6.624 142.459 6.64C143.76 6.64 144.849 6.964 145.691 7.604C146.514 8.227 147.117 9.066 147.491 10.099L150.606 9.644C150.116 7.88 149.187 6.486 147.843 5.502V5.506ZM188.276 9.28C187.271 8.666 186.087 8.36 184.72 8.36C183.354 8.36 182.192 8.666 181.259 9.28C181.071 9.40486 180.89 9.54076 180.718 9.687V8.731H177.865V28H181.119V21.393C181.177 21.434 181.234 21.476 181.294 21.515C182.249 22.133 183.431 22.442 184.842 22.442C186.172 22.442 187.334 22.133 188.324 21.515C189.309 20.9025 190.106 20.0307 190.628 18.995C191.172 17.932 191.446 16.734 191.446 15.4C191.446 14.066 191.169 12.845 190.616 11.787C190.083 10.7517 189.274 9.88397 188.279 9.28H188.276ZM187.633 17.62C187.369 18.281 186.965 18.808 186.421 19.194C185.877 19.581 185.184 19.774 184.344 19.774C183.503 19.774 182.778 19.59 182.246 19.224C181.715 18.859 181.326 18.346 181.082 17.686C180.835 17.028 180.713 16.265 180.713 15.4C180.713 14.535 180.835 13.762 181.082 13.11C181.326 12.454 181.71 11.943 182.227 11.578C182.745 11.212 183.414 11.028 184.236 11.028C185.102 11.028 185.818 11.223 186.379 11.614C186.942 12.005 187.356 12.532 187.626 13.197C187.892 13.859 188.027 14.595 188.027 15.402C188.027 16.209 187.895 16.958 187.633 17.62ZM206.421 13.369C206.354 12.8107 206.226 12.2615 206.04 11.731C205.834 11.1387 205.525 10.5871 205.129 10.101C204.718 9.591 204.164 9.17 203.469 8.841C202.773 8.511 201.887 8.346 200.818 8.346C199.461 8.346 198.316 8.62 197.389 9.167C196.89 9.462 196.459 9.811 196.089 10.214V4.283H193.209V22.069H196.479V15.213C196.479 14.399 196.576 13.73 196.773 13.206C196.97 12.684 197.229 12.272 197.556 11.971C197.867 11.6792 198.241 11.4615 198.648 11.334C199.043 11.2106 199.454 11.1476 199.868 11.147C200.636 11.147 201.244 11.299 201.695 11.605C202.147 11.911 202.486 12.3 202.713 12.773C202.94 13.247 203.084 13.739 203.149 14.25C203.212 14.76 203.244 15.225 203.244 15.646V22.069H206.513V14.62C206.513 14.298 206.483 13.882 206.426 13.367L206.421 13.369ZM160.703 8.848C160.259 8.875 159.823 8.954 159.401 9.078C158.995 9.19588 158.607 9.3674 158.247 9.588C157.845 9.81454 157.489 10.114 157.197 10.471C157.066 10.6329 156.946 10.8036 156.838 10.982L156.718 11.177V8.903H154.028V21.961H157.102V15.321C157.102 14.816 157.169 14.335 157.302 13.896C157.436 13.456 157.646 13.056 157.927 12.711C158.209 12.364 158.578 12.077 159.027 11.854C159.494 11.6009 160.011 11.4525 160.541 11.419C161.062 11.379 161.533 11.412 161.945 11.511V8.894C161.534 8.83584 161.117 8.82042 160.703 8.848ZM74 4.25V21.997H87.254V19.316H77.01V4.25H74ZM94.322 8.462C91.434 8.462 89.272 9.71 88.394 11.888L88.169 12.447L90.646 13.923L90.982 13.113C91.556 11.734 92.618 11.093 94.322 11.093C96.025 11.093 97 11.853 96.982 13.355C96.982 13.417 96.977 13.601 96.977 13.601C96.977 13.601 94.723 13.939 93.795 14.119C89.833 14.892 88.172 16.285 88.172 18.569C88.172 19.785 88.905 21.101 90.242 21.839C91.045 22.283 92.092 22.449 93.247 22.449C94.007 22.449 94.745 22.345 95.431 22.152C96.987 21.676 97.419 20.74 97.419 20.74V21.963H99.995V13.21C99.995 10.235 97.875 8.46 94.325 8.46L94.322 8.462ZM96.99 17.803C96.99 18.723 95.903 20.018 93.371 20.018C92.658 20.018 92.15 19.843 91.813 19.583C91.6157 19.4366 91.4615 19.2397 91.3667 19.013C91.2718 18.7863 91.2398 18.5383 91.274 18.295C91.302 18.105 91.426 17.69 91.893 17.332C92.369 16.964 93.209 16.704 94.509 16.442C95.3337 16.2811 96.1605 16.1308 96.989 15.991L96.99 17.803ZM169.718 8.462C166.83 8.462 164.668 9.71 163.79 11.888L163.566 12.447L166.042 13.923L166.379 13.113C166.952 11.734 168.015 11.093 169.719 11.093C171.421 11.093 172.396 11.853 172.379 13.355C172.379 13.417 172.374 13.601 172.374 13.601C172.374 13.601 170.119 13.939 169.192 14.119C165.229 14.892 163.568 16.285 163.568 18.569C163.568 19.785 164.301 21.101 165.638 21.839C166.441 22.283 167.488 22.449 168.643 22.449C169.404 22.449 170.143 22.345 170.827 22.152C172.384 21.676 172.815 20.74 172.815 20.74V21.963H175.391V13.21C175.391 10.235 173.271 8.46 169.721 8.46L169.718 8.462ZM172.386 17.803C172.386 18.723 171.299 20.018 168.768 20.018C168.054 20.018 167.546 19.843 167.209 19.583C167.012 19.4365 166.858 19.2396 166.763 19.0129C166.668 18.7863 166.636 18.5383 166.67 18.295C166.698 18.105 166.823 17.69 167.29 17.332C167.765 16.964 168.606 16.704 169.905 16.442C170.975 16.228 172.386 15.991 172.386 15.991V17.803ZM109.511 8.462C109.152 8.462 108.803 8.484 108.466 8.528C106.159 8.848 105.484 9.928 105.484 9.928V8.848H102.598V21.97H105.608V14.692C105.608 12.219 107.563 11.092 109.381 11.092C111.346 11.092 112.302 12.067 112.302 14.07V21.968H115.312V13.688C115.312 10.462 113.09 8.459 109.512 8.459L109.511 8.462ZM127.87 8.839V10.19C127.87 10.19 127.132 8.46 123.778 8.46C119.611 8.46 117.02 11.114 117.02 15.383C117.02 17.793 117.855 19.69 119.33 20.888C120.474 21.82 122.005 22.298 123.83 22.33C125.097 22.353 125.92 22.033 126.431 21.732C127.416 21.155 127.781 20.605 127.781 20.605C127.781 20.605 127.738 21.035 127.663 21.617C127.608 22.038 127.506 22.335 127.506 22.335C127.047 23.839 125.708 24.708 123.753 24.708C121.798 24.708 120.613 24.115 120.379 22.946L117.454 23.751C117.96 25.998 120.247 27.341 123.571 27.341C125.831 27.341 127.603 26.775 128.838 25.656C130.082 24.529 130.715 22.903 130.715 20.824V8.839H127.87ZM127.681 15.505C127.681 18.132 126.289 19.7 123.961 19.7C121.464 19.7 120.032 18.127 120.032 15.386C120.032 12.645 121.464 11.095 123.96 11.095C126.234 11.095 127.661 12.656 127.681 15.17V15.505Z" fill="var(--fill-0, #1E1E1E)"/>
</g>
</svg>
