<svg preserveAspectRatio="none" width="100%" height="100%" overflow="visible" style="display: block;" viewBox="0 0 110.686 30" fill="none" xmlns="http://www.w3.org/2000/svg">
<g id="Group">
<path id="svg_1" fill-rule="evenodd" clip-rule="evenodd" d="M51 12C48.2043 12 45.855 10.0877 45.189 7.5H38.312C36.8455 7.5 35.594 8.56025 35.353 10.0068L35.1063 11.4865C34.8723 12.8912 34.1615 14.1137 33.1565 15C34.1615 15.8863 34.8723 17.1088 35.1063 18.5135L35.353 19.9932C35.594 21.4397 36.8455 22.5 38.312 22.5H39.189C39.855 19.9123 42.2043 18 45 18C48.3138 18 51 20.6862 51 24C51 27.3138 48.3138 30 45 30C42.2043 30 39.855 28.0877 39.189 25.5H38.312C35.379 25.5 32.876 23.3795 32.3938 20.4865L32.147 19.0068C31.906 17.5603 30.6545 16.5 29.188 16.5H26.811C26.145 19.0877 23.7958 21 21 21C18.2043 21 15.855 19.0877 15.189 16.5H11.811C11.145 19.0877 8.79575 21 6 21C2.6863 21 0 18.3138 0 15C0 11.6862 2.6863 9 6 9C8.79575 9 11.145 10.9123 11.811 13.5H15.189C15.855 10.9123 18.2043 9 21 9C23.7958 9 26.145 10.9123 26.811 13.5H29.188C30.6545 13.5 31.906 12.4397 32.147 10.9932L32.3938 9.5135C32.876 6.6205 35.379 4.5 38.312 4.5H45.189C45.855 1.91225 48.2043 0 51 0C54.3138 0 57 2.68625 57 6C57 9.31375 54.3138 12 51 12ZM51 9C52.6568 9 54 7.65675 54 6C54 4.34325 52.6568 3 51 3C49.3433 3 48 4.34325 48 6C48 7.65675 49.3433 9 51 9ZM6 18C7.65675 18 9 16.6567 9 15C9 13.3433 7.65675 12 6 12C4.34315 12 3 13.3433 3 15C3 16.6567 4.34315 18 6 18ZM24 15C24 16.6567 22.6568 18 21 18C19.3433 18 18 16.6567 18 15C18 13.3433 19.3433 12 21 12C22.6568 12 24 13.3433 24 15ZM48 24C48 25.6567 46.6568 27 45 27C43.3433 27 42 25.6567 42 24C42 22.3433 43.3433 21 45 21C46.6568 21 48 22.3433 48 24Z" fill="var(--fill-0, #EA4B71)"/>
<path id="svg_2" fill-rule="evenodd" clip-rule="evenodd" d="M93.0043 12.9717V12.829C94.051 12.3047 95.0978 11.3992 95.0978 9.61224C95.0978 7.03874 92.9805 5.48999 90.0545 5.48999C87.057 5.48999 84.916 7.13399 84.916 9.65974C84.916 11.3755 85.915 12.3047 87.0095 12.829V12.9717C85.7963 13.4007 84.345 14.6875 84.345 16.832C84.345 19.429 86.486 21.24 90.0308 21.24C93.5753 21.24 95.645 19.429 95.645 16.832C95.645 14.6875 94.2175 13.4245 93.0043 12.9717ZM90.0308 7.68224C91.2203 7.68224 92.1003 8.44449 92.1003 9.73124C92.1003 11.018 91.1963 11.7805 90.0308 11.7805C88.865 11.7805 87.8895 11.018 87.8895 9.73124C87.8895 8.42074 88.8175 7.68224 90.0308 7.68224ZM90.0308 18.9525C88.6508 18.9525 87.5328 18.071 87.5328 16.5697C87.5328 15.2117 88.4605 14.187 90.0068 14.187C91.5295 14.187 92.4573 15.1877 92.4573 16.6175C92.4573 18.071 91.3868 18.9525 90.0308 18.9525Z" fill="var(--fill-0, white)"/>
<path id="svg_3" d="M99.3151 21.0017H102.36V14.5445C102.36 12.4237 103.645 11.4945 105.096 11.4945C106.523 11.4945 107.641 12.4477 107.641 14.4015V21.0017H110.686V13.782C110.686 10.6605 108.878 8.84973 106.048 8.84973C104.263 8.84973 103.264 9.56448 102.55 10.4937H102.36L102.098 9.08798H99.3151V21.0017Z" fill="var(--fill-0, white)"/>
<path id="svg_4" d="M72.3601 21.0017H69.3151V9.08798H72.0983L72.3601 10.4937H72.5503C73.2641 9.56448 74.2633 8.84973 76.0476 8.84973C78.8783 8.84973 80.6863 10.6605 80.6863 13.782V21.0017H77.6413V14.4015C77.6413 12.4477 76.5233 11.4945 75.0958 11.4945C73.6448 11.4945 72.3601 12.4237 72.3601 14.5445V21.0017Z" fill="var(--fill-0, white)"/>
</g>
</svg>
