<svg preserveAspectRatio="none" width="100%" height="100%" overflow="visible" style="display: block;" viewBox="0 0 40 40" fill="none" xmlns="http://www.w3.org/2000/svg">
<g id="notion (1) 1" clip-path="url(#clip0_1_981)">
<path id="Vector" d="M7.43167 7.01333C8.675 8.02333 9.14167 7.94667 11.4783 7.79L33.5033 6.46833C33.97 6.46833 33.5817 6.00167 33.4267 5.925L29.7667 3.28C29.0667 2.73667 28.1317 2.11333 26.3417 2.26833L5.01667 3.825C4.24 3.90167 4.08333 4.29167 4.39333 4.60167L7.43167 7.01333ZM8.75333 12.1467V35.32C8.75333 36.565 9.375 37.0317 10.7767 36.9533L34.9817 35.5533C36.3833 35.4767 36.54 34.62 36.54 33.6083V10.59C36.54 9.58 36.1517 9.035 35.2933 9.11167L9.99833 10.59C9.065 10.6683 8.75333 11.1367 8.75333 12.1467ZM32.6483 13.3883C32.8033 14.0883 32.6483 14.7883 31.9483 14.8683L30.7817 15.1017V32.2083C29.7683 32.7533 28.835 33.065 28.0567 33.065C26.81 33.065 26.4983 32.675 25.565 31.51L17.9367 19.5333V31.12L20.35 31.6667C20.35 31.6667 20.35 33.0667 18.4033 33.0667L13.0333 33.3767C12.8783 33.0667 13.0333 32.2883 13.5783 32.1333L14.9783 31.745V16.4233L13.0367 16.2667C12.88 15.5667 13.27 14.5567 14.3583 14.4783L20.1183 14.09L28.0583 26.2217V15.4883L26.0333 15.2567C25.8783 14.4 26.5 13.7783 27.2783 13.7017L32.6483 13.3883ZM3.22667 1.725L25.41 0.0916667C28.1333 -0.141667 28.835 0.0133333 30.5467 1.25833L37.6283 6.235C38.795 7.09 39.185 7.32333 39.185 8.25667V35.5533C39.185 37.2633 38.5633 38.2767 36.385 38.43L10.6217 39.9867C8.98833 40.065 8.20833 39.8317 7.35167 38.7417L2.13667 31.975C1.20333 30.73 0.815 29.7983 0.815 28.7083V4.445C0.815 3.04667 1.43833 1.87833 3.22667 1.725Z" fill="var(--fill-0, white)"/>
</g>
<defs>
<clipPath id="clip0_1_981">
<rect width="40" height="40" fill="white"/>
</clipPath>
</defs>
</svg>
