<svg preserveAspectRatio="none" width="100%" height="100%" overflow="visible" style="display: block;" viewBox="0 0 40 40" fill="none" xmlns="http://www.w3.org/2000/svg">
<g id="ycombinator 1">
<g clip-path="url(#clip0_1_913)">
<path id="Vector" d="M8 40C3.58172 40 0 36.4183 0 32V8C0 3.58172 3.58172 0 8 0H32C36.4183 0 40 3.58172 40 8V32C40 36.4183 36.4183 40 32 40H8ZM13.8685 9.82667C12.8343 9.82667 12.173 10.9289 12.6598 11.8414L17.6437 21.1837C18.1654 22.1617 18.4383 23.2532 18.4383 24.3616V29.7942C18.4383 30.5227 19.0289 31.1133 19.7575 31.1133C20.4861 31.1133 21.0767 30.5227 21.0767 29.7942V24.4808C21.0767 23.3947 21.3434 22.3252 21.8534 21.3663L26.9908 11.7069C27.4437 10.8555 26.8266 9.82833 25.8622 9.82833C25.3795 9.82833 24.938 10.1003 24.7207 10.5313L20.98 17.9533C20.5317 18.8511 19.1881 18.8553 18.7483 17.9533L15.0959 10.588C14.8646 10.1217 14.3891 9.82667 13.8685 9.82667Z" fill="var(--fill-0, #F0652F)"/>
</g>
</g>
<defs>
<clipPath id="clip0_1_913">
<rect width="40" height="40" rx="2" fill="white"/>
</clipPath>
</defs>
</svg>
