<svg preserveAspectRatio="none" width="100%" height="100%" overflow="visible" style="display: block;" viewBox="0 0 32 32" fill="none" xmlns="http://www.w3.org/2000/svg">
<g id="OpenAI icon 1" clip-path="url(#clip0_0_25)">
<path id="Vector" d="M29.7092 13.0948C30.067 12.0173 30.1907 10.8759 30.0722 9.74671C29.9536 8.61757 29.5954 7.52673 29.0216 6.54707C28.1709 5.0663 26.8719 3.89394 25.312 3.19901C23.752 2.50408 22.0117 2.32248 20.3419 2.6804C19.3932 1.62515 18.1836 0.838095 16.8345 0.398282C15.4854 -0.0415297 14.0443 -0.118614 12.656 0.174771C11.2677 0.468157 9.98098 1.12168 8.92516 2.06971C7.86934 3.01774 7.08156 4.22689 6.64094 5.57573C5.5285 5.80385 4.47755 6.26678 3.55835 6.93359C2.63914 7.6004 1.87285 8.45572 1.31067 9.4424C0.450721 10.9207 0.0831822 12.6342 0.261195 14.3351C0.439209 16.0361 1.15355 17.6363 2.30094 18.9045C1.94183 19.9815 1.81684 21.1228 1.93434 22.2519C2.05184 23.3811 2.40912 24.4722 2.98227 25.4521C3.83406 26.9334 5.13417 28.1061 6.69522 28.801C8.25627 29.4959 9.99766 29.6773 11.6684 29.3189C12.4221 30.1677 13.3482 30.8458 14.3848 31.3082C15.4215 31.7705 16.5448 32.0064 17.6799 32C19.3914 32.0016 21.0591 31.4592 22.4424 30.4513C23.8256 29.4434 24.8528 28.022 25.3756 26.3923C26.4879 26.1638 27.5387 25.7006 28.4579 25.0339C29.377 24.3671 30.1434 23.5119 30.7059 22.5255C31.5557 21.0493 31.9169 19.3423 31.7379 17.6485C31.5589 15.9546 30.8488 14.3607 29.7092 13.0948ZM17.6799 29.9056C16.2782 29.9078 14.9204 29.4165 13.8447 28.5179L14.0339 28.4107L20.4049 24.7331C20.5635 24.6401 20.6952 24.5074 20.787 24.3482C20.8788 24.1889 20.9275 24.0085 20.9285 23.8247V14.8421L23.6219 16.4003C23.6352 16.407 23.6467 16.4168 23.6555 16.4289C23.6643 16.4409 23.6702 16.4549 23.6725 16.4696V23.9131C23.6692 25.5014 23.0367 27.0236 21.9136 28.1467C20.7905 29.2698 19.2682 29.9023 17.6799 29.9056ZM4.79894 24.4051C4.09597 23.1912 3.84357 21.7684 4.08614 20.3868L4.27547 20.5004L10.6528 24.178C10.8106 24.2706 10.9902 24.3194 11.1732 24.3194C11.3562 24.3194 11.5358 24.2706 11.6936 24.178L19.484 19.6867V22.7965C19.4833 22.8127 19.4789 22.8284 19.4712 22.8426C19.4636 22.8568 19.4528 22.8691 19.4397 22.8785L12.9867 26.6003C11.6095 27.3936 9.9738 27.608 8.43869 27.1965C6.90357 26.7849 5.59452 25.7809 4.79894 24.4051ZM3.12107 10.5275C3.82892 9.30582 4.94618 8.37404 6.27507 7.89707V15.4667C6.27268 15.6495 6.3194 15.8297 6.41038 15.9884C6.50135 16.147 6.63324 16.2784 6.79227 16.3687L14.5448 20.8411L11.8513 22.3991C11.8368 22.4068 11.8205 22.4109 11.804 22.4109C11.7875 22.4109 11.7713 22.4068 11.7567 22.3991L5.31627 18.6837C3.94169 17.887 2.93887 16.5779 2.52743 15.0433C2.11599 13.5087 2.32945 11.8736 3.12107 10.496V10.5275ZM25.2495 15.6685L17.4717 11.152L20.1589 9.6C20.1735 9.59226 20.1898 9.58821 20.2063 9.58821C20.2228 9.58821 20.239 9.59226 20.2536 9.6L26.694 13.3217C27.6787 13.8899 28.4815 14.7265 29.0086 15.7339C29.5357 16.7412 29.7654 17.8777 29.6708 19.0107C29.5762 20.1436 29.1613 21.2263 28.4745 22.1323C27.7877 23.0383 26.8573 23.7303 25.792 24.1273V16.5577C25.7864 16.3752 25.7335 16.1972 25.6383 16.0413C25.5432 15.8854 25.4093 15.757 25.2495 15.6685ZM27.9304 11.6377L27.7411 11.5241L21.3764 7.81507C21.2176 7.7219 21.0369 7.67278 20.8528 7.67278C20.6687 7.67278 20.488 7.7219 20.3292 7.81507L12.5453 12.3063V9.19653C12.5437 9.18072 12.5463 9.16476 12.553 9.15032C12.5597 9.13589 12.5701 9.12352 12.5832 9.11453L19.0236 5.39907C20.0107 4.83042 21.1393 4.55458 22.2774 4.60381C23.4155 4.65304 24.516 5.02529 25.4503 5.67704C26.3846 6.32879 27.114 7.23309 27.5532 8.28417C27.9925 9.33526 28.1233 10.4897 27.9305 11.6124L27.9304 11.6377ZM11.0753 17.1507L8.38201 15.5989C8.36853 15.5908 8.35701 15.5798 8.34825 15.5668C8.3395 15.5537 8.33372 15.5389 8.33134 15.5233V8.09893C8.33282 6.95996 8.65852 5.84495 9.27034 4.88426C9.88217 3.92358 10.7548 3.15692 11.7863 2.67392C12.8178 2.19092 13.9655 2.01155 15.0952 2.15677C16.2248 2.302 17.2898 2.76581 18.1656 3.494L17.9763 3.60133L11.6053 7.27867C11.4468 7.37166 11.3151 7.50431 11.2233 7.66357C11.1315 7.82284 11.0827 8.00324 11.0817 8.18707L11.0753 17.1507ZM12.5388 13.9968L16.0081 11.9971L19.484 13.9968V17.996L16.0208 19.9956L12.5452 17.996L12.5388 13.9968Z" fill="var(--fill-0, #231F1B)"/>
</g>
<defs>
<clipPath id="clip0_0_25">
<rect width="32" height="32" fill="white"/>
</clipPath>
</defs>
</svg>
