<svg width="40" height="40" viewBox="0 0 40 40" fill="none" xmlns="http://www.w3.org/2000/svg">
<path d="M28.234 14.4392C30.8168 16.2845 33.9808 17.3702 37.3981 17.3702V10.7978C36.7514 10.798 36.1063 10.7306 35.4736 10.5966V15.77C32.0566 15.77 28.893 14.6843 26.3095 12.8391V26.2515C26.3095 32.9611 20.8675 38.3999 14.1549 38.3999C11.6502 38.3999 9.32227 37.6431 7.38843 36.3451C9.59559 38.6007 12.6737 40 16.079 40C22.792 40 28.2343 34.5612 28.2343 27.8514V14.4392H28.234ZM30.6081 7.80847C29.2882 6.36719 28.4216 4.50461 28.234 2.44545V1.6001H26.4103C26.8694 4.21729 28.4352 6.45326 30.6081 7.80847ZM11.6342 31.1964C10.8967 30.23 10.4982 29.0477 10.5 27.8322C10.5 24.7635 12.9891 22.2753 16.06 22.2753C16.6324 22.2752 17.2012 22.3627 17.7466 22.5357V15.8164C17.1093 15.7291 16.466 15.692 15.823 15.7056V20.9356C15.2771 20.7626 14.708 20.6748 14.1355 20.6753C11.0646 20.6753 8.57561 23.1632 8.57561 26.2323C8.57561 28.4024 9.81977 30.2812 11.6342 31.1964Z" fill="#FF004F"/>
<path d="M26.3099 12.839C28.8933 14.6841 32.0569 15.7699 35.4739 15.7699V10.5964C33.5666 10.1904 31.8781 9.19414 30.6085 7.80847C28.4354 6.45313 26.8697 4.21715 26.4107 1.6001H21.6202V27.8511C21.6093 30.9114 19.1245 33.3894 16.0601 33.3894C14.2544 33.3894 12.6501 32.5291 11.6341 31.1964C9.81985 30.2812 8.5757 28.4023 8.5757 26.2325C8.5757 23.1636 11.0647 20.6755 14.1356 20.6755C14.724 20.6755 15.2911 20.767 15.823 20.9357V15.7058C9.22832 15.8419 3.92456 21.2276 3.92456 27.8512C3.92456 31.1577 5.24532 34.1551 7.38892 36.3453C9.32277 37.6431 11.6507 38.4 14.1554 38.4C20.8682 38.4 26.31 32.961 26.31 26.2515V12.839H26.3099Z" fill="black"/>
<path d="M35.4737 10.5963V9.19745C33.7538 9.20005 32.0676 8.71862 30.6083 7.8082C31.9001 9.22174 33.6011 10.1964 35.4737 10.5963ZM26.4105 1.59997C26.3667 1.34985 26.333 1.09808 26.3097 0.845354V0H19.6953V26.2513C19.6848 29.3112 17.2 31.7892 14.1354 31.7892C13.2357 31.7892 12.3862 31.5757 11.6339 31.1964C12.6499 32.529 14.2542 33.3891 16.0599 33.3891C19.124 33.3891 21.6093 30.9114 21.62 27.8511V1.59997H26.4105ZM15.8231 15.7056V14.2164C15.2704 14.1409 14.7132 14.1031 14.1553 14.1033C7.442 14.1032 2 19.5423 2 26.2513C2 30.4575 4.1388 34.1644 7.38887 36.3449C5.24527 34.1549 3.92451 31.1573 3.92451 27.851C3.92451 21.2275 9.22813 15.8418 15.8231 15.7056Z" fill="#00F2EA"/>
</svg>
