<svg width="90" height="40" viewBox="0 0 90 40" fill="none" xmlns="http://www.w3.org/2000/svg">
<g clip-path="url(#clip0_191_10791)">
<path d="M39.7483 7.00202C42.3019 7.00202 43.2494 5.43649 43.2494 3.50102C43.2494 1.56553 42.3064 0 39.7483 0C37.1902 0 36.2472 1.56553 36.2472 3.50102C36.2472 5.43649 37.1902 7.00202 39.7483 7.00202Z" fill="#0033FF"/>
<path d="M10.6251 0.0045166H0V32.5017H10.6251C23.7497 32.5017 27.499 25.0034 27.499 16.2508C27.499 7.49831 23.7497 0.0045166 10.6251 0.0045166ZM10.7514 27.5029H6.00062V5.00339H10.7514C18.2996 5.00339 21.5029 8.70743 21.5029 16.2508C21.5029 23.7943 18.2996 27.4983 10.7514 27.4983V27.5029Z" fill="#1a1a1a"/>
<path d="M51.9975 7.75548V10.0068H46.2497V15.0056H51.9975V27.5073H42.4959V10.0023H29.9984V15.0011H36.9962V27.5029H28.7442V32.5017H66.2414V27.5029H57.4929V15.0011H66.2414V10.0023H57.4929V5.00339H66.2414V0.0045166H59.7398C55.467 0.0045166 51.9885 3.48297 51.9885 7.75548H51.9975Z" fill="#0033FF"/>
<path d="M84.0627 10.0022L79.0636 26.253L74.0646 10.0022H68.1273L75.3772 31.0218C76.131 33.21 74.8539 35.0011 72.5395 35.0011H69.9993V40H73.7352C76.9927 40 79.9254 37.9382 81.0261 34.8747L90 10.0022H84.0627Z" fill="#1a1a1a"/>
</g>
<defs>
<clipPath id="clip0_191_10791">
<rect width="90" height="40" fill="#1a1a1a"/>
</clipPath>
</defs>
</svg>
