<svg width="105" height="36" viewBox="0 0 105 36" fill="none" xmlns="http://www.w3.org/2000/svg">
<path d="M84.2142 31.5005V4.8219H93.9512C96.8812 4.8219 99.1418 5.45707 100.733 6.72756C102.324 7.97245 103.12 9.68764 103.12 11.8726C103.12 13.4734 102.703 14.7566 101.87 15.722C101.061 16.6621 99.9625 17.3227 98.5734 17.7038C99.6343 17.8817 100.581 18.2121 101.415 18.6948C102.248 19.1775 102.905 19.8508 103.385 20.7147C103.89 21.5532 104.143 22.6077 104.143 23.878C104.143 26.2409 103.297 28.1084 101.604 29.4805C99.9374 30.8271 97.4999 31.5005 94.2922 31.5005H84.2142ZM88.5712 27.8036H94.3301C96.0729 27.8036 97.3989 27.4605 98.3082 26.7745C99.2175 26.0632 99.6722 25.0849 99.6722 23.8398C99.6722 22.5441 99.2048 21.5405 98.2703 20.829C97.3357 20.1176 96.0223 19.7619 94.3301 19.7619H88.5712V27.8036ZM88.5712 16.1412H94.0649C95.5803 16.1412 96.7422 15.7983 97.5505 15.1122C98.3588 14.4262 98.7629 13.4861 98.7629 12.2919C98.7629 11.0977 98.3588 10.1703 97.5505 9.50973C96.7422 8.82369 95.5803 8.48074 94.0649 8.48074H88.5712V16.1412Z" fill="white"/>
<path d="M62.6786 31.4995V28.0554L72.9638 19.1932C73.7794 18.4967 74.5058 17.813 75.1431 17.1422C75.7803 16.4715 76.2773 15.7749 76.6342 15.0526C76.9911 14.3043 77.1695 13.5046 77.1695 12.6532C77.1695 11.1052 76.698 9.9184 75.7548 9.09285C74.8372 8.2673 73.6136 7.85444 72.0844 7.85444C70.5549 7.85444 69.3186 8.34474 68.3756 9.32501C67.4325 10.3054 66.9608 11.634 66.9608 13.3111V13.7754H62.7168V13.0788C62.7168 11.3502 63.0992 9.82821 63.8639 8.51236C64.6287 7.17086 65.7119 6.11299 67.1138 5.33907C68.5413 4.56514 70.1981 4.1781 72.0844 4.1781C74.0981 4.1781 75.7931 4.52642 77.1695 5.22291C78.5714 5.91955 79.6292 6.88707 80.343 8.12532C81.0821 9.36373 81.4517 10.8085 81.4517 12.4597C81.4517 13.8012 81.2096 15.0009 80.7254 16.0586C80.241 17.0907 79.5656 18.071 78.6989 18.9998C77.8578 19.9028 76.8891 20.8187 75.7931 21.7475L68.6814 27.7457H81.6429V31.4995H62.6786Z" fill="white"/>
<path d="M42.107 31.5005V4.8219H59.6465V8.70937H46.5206V16.1031H57.3437V19.8762H46.5206V27.613H60.107V31.5005H42.107Z" fill="white"/>
<path fill-rule="evenodd" clip-rule="evenodd" d="M28.7933 24.5227C28.5557 24.5227 28.4073 24.7816 28.526 24.9887L31.0106 29.3214C31.1481 29.5611 30.929 29.8484 30.6635 29.7768L23.1282 27.7439C22.7989 27.655 22.4605 27.8518 22.3724 28.1832L20.3532 35.7697C20.282 36.037 19.9254 36.0842 19.788 35.8446L17.3029 31.5111C17.1841 31.304 16.8872 31.304 16.7685 31.5111L14.2835 35.8446C14.146 36.0842 13.7893 36.037 13.7182 35.7697L11.6989 28.1832C11.6108 27.8518 11.2723 27.655 10.9431 27.7439L3.40777 29.7768C3.14226 29.8484 2.92319 29.5611 3.06065 29.3214L5.54523 24.9887C5.66402 24.7816 5.51561 24.5227 5.27803 24.5227H0.309158C0.0342725 24.5227 -0.103386 24.1882 0.090999 23.9925L5.60741 18.4388C5.84838 18.1962 5.84838 17.8029 5.60741 17.5603L0.090999 12.0065C-0.103386 11.8108 0.0342878 11.4762 0.309173 11.4762H5.27757C5.515 11.4762 5.66356 11.2175 5.54477 11.0103L3.06065 6.67864C2.92319 6.43899 3.14226 6.15165 3.40777 6.22325L10.9431 8.2562C11.2723 8.34488 11.6108 8.14825 11.6989 7.81681L13.7182 0.23032C13.7893 -0.0369962 14.146 -0.0842592 14.2835 0.155411L16.7684 4.48882C16.8872 4.69602 17.1841 4.69602 17.3029 4.48882L19.788 0.155411C19.9253 -0.0842592 20.282 -0.0369962 20.3531 0.23032L22.3724 7.81681C22.4605 8.14825 22.7989 8.34488 23.1282 8.2562L30.6635 6.22325C30.929 6.15165 31.1481 6.43899 31.0106 6.67864L28.5265 11.0103C28.4077 11.2175 28.5563 11.4762 28.7937 11.4762H33.7623C34.0372 11.4762 34.1748 11.8108 33.9804 12.0065L28.464 17.5603C28.2231 17.8029 28.2231 18.1962 28.464 18.4388L33.9804 23.9925C34.1748 24.1882 34.0372 24.5227 33.7623 24.5227H28.7933ZM26.8968 12.615C27.12 12.3903 26.9035 12.013 26.5987 12.0953L19.8884 13.9056C19.5592 13.9942 19.2209 13.7976 19.1326 13.4662L17.3336 6.70706C17.252 6.40016 16.8193 6.40016 16.7377 6.70706L14.9387 13.4662C14.8504 13.7976 14.5121 13.9942 14.1829 13.9056L7.47289 12.0953C7.16789 12.013 6.9516 12.3903 7.17483 12.615L12.0869 17.5603C12.3279 17.8029 12.3279 18.1963 12.0869 18.439L7.1736 23.3853C6.95036 23.6101 7.16681 23.9872 7.47165 23.905L14.1829 22.0945C14.5121 22.0057 14.8504 22.2024 14.9387 22.5337L16.7377 29.293C16.8193 29.5999 17.252 29.5999 17.3336 29.293L19.1326 22.5337C19.2209 22.2024 19.5592 22.0057 19.8884 22.0945L26.5998 23.905C26.9048 23.9874 27.1211 23.6101 26.8978 23.3853L21.9847 18.439C21.7435 18.1963 21.7435 17.8029 21.9847 17.5603L26.8968 12.615Z" fill="white"/>
</svg>
