<svg width="24" height="24" viewBox="0 0 24 24" fill="none" xmlns="http://www.w3.org/2000/svg">
<path fill-rule="evenodd" clip-rule="evenodd" d="M12 2C6.477 2 2 6.477 2 12C2 16.418 4.865 20.166 8.839 21.489C9.339 21.581 9.521 21.272 9.521 21.007C9.521 20.769 9.513 20.14 9.508 19.307C6.726 19.91 6.139 17.966 6.139 17.966C5.685 16.812 5.029 16.503 5.029 16.503C4.121 15.882 5.098 15.895 5.098 15.895C6.101 15.965 6.629 16.926 6.629 16.926C7.521 18.455 8.97 18.013 9.539 17.757C9.631 17.111 9.889 16.67 10.175 16.42C7.954 16.166 5.62 15.31 5.62 11.477C5.62 10.386 6.01 9.493 6.649 8.794C6.546 8.541 6.203 7.524 6.747 6.147C6.747 6.147 7.587 5.878 9.497 7.171C10.31 6.95 11.16 6.839 12.005 6.835C12.85 6.839 13.7 6.95 14.515 7.171C16.422 5.878 17.26 6.147 17.26 6.147C17.806 7.524 17.463 8.541 17.36 8.794C18.001 9.493 18.387 10.386 18.387 11.477C18.387 15.32 16.05 16.163 13.821 16.411C14.175 16.714 14.491 17.314 14.491 18.228C14.491 19.555 14.479 20.631 14.479 21.007C14.479 21.275 14.658 21.587 15.167 21.488C19.138 20.163 22 16.417 22 12C22 6.477 17.523 2 12 2Z" fill="#ED4E01"/>
</svg>
