<svg width="281" height="64" viewBox="0 0 281 64" fill="none" xmlns="http://www.w3.org/2000/svg">
<g clip-path="url(#clip0_303_12787)">
<path d="M16.7957 34.3028C21.8766 34.2948 25.8187 34.547 28.6857 35.8371C29.9785 36.4159 31.1917 37.1565 32.3013 38.0405L32.9543 38.5873C34.6002 40.0447 37.9689 42.3436 42.1181 41.5605C42.6464 41.4596 43.1534 41.3269 43.6392 41.1623C45.95 40.825 48.3049 40.9536 50.5653 41.5403C52.8257 42.1271 54.9458 43.1602 56.8008 44.5788C54.0002 48.4147 49.7129 50.9738 44.8736 51.3481L44.4223 51.3746C38.7467 51.6613 34.4622 49.0412 31.6191 46.6096C26.5912 43.9125 22.6544 43.2329 20.3529 42.6462C19.1059 42.309 17.9166 41.7864 16.8249 41.0959L16.1904 40.6845C15.3242 40.0804 14.6018 39.2927 14.0747 38.3776C13.4085 37.2118 13.0717 35.8868 13.1004 34.5443L13.934 34.4435C14.8845 34.3431 15.8399 34.2961 16.7957 34.3028ZM59.7686 26.761C59.9757 27.7698 60.1934 28.2635 60.273 29.0121C60.56 31.8762 60.3717 34.768 59.7156 37.5706C56.7275 35.9987 53.5299 34.8625 50.22 34.1966C50.5279 33.2409 50.6978 32.2322 50.7244 31.2101C50.7456 30.4005 50.6527 30.0979 50.512 29.3147C51.9428 29.0732 53.7241 28.6776 55.3514 28.2529C57.0689 27.8016 58.3405 27.2787 59.7686 26.761ZM31.2766 15.7072L31.6881 15.37C33.2384 14.1383 37.9158 10.9103 44.4435 11.4943C47.4247 11.7598 49.8882 12.742 51.8207 13.8781C53.6312 14.9453 55.1655 16.5115 56.4291 18.1653C55.2876 18.9883 53.602 19.8723 51.3429 20.5757C48.8409 21.347 46.1993 21.5555 43.6073 21.1863C40.0687 20.2944 36.177 21.5951 33.5118 24.5072C32.0305 26.1239 30.3156 27.5043 28.3592 28.4732C25.3966 29.9412 20.8705 29.912 15.6011 29.6147C14.9297 29.5764 14.2602 29.5109 13.5942 29.4183C14.0688 28.0185 14.823 26.7297 15.8108 25.6301C17.0093 24.3025 18.5164 23.2904 20.1989 22.6835C25.6329 20.5757 30.1484 16.7796 31.2766 15.7072ZM7.0134 19.3971C5.33237 18.5184 3.76363 17.4399 2.34127 16.185C1.74133 15.6541 0.806903 16.0868 0.806903 16.8991V23.5303C0.806028 23.6723 0.836784 23.8126 0.896937 23.9412C0.957091 24.0698 1.04513 24.1833 1.15466 24.2736L3.83848 26.8858C4.2089 24.1508 5.3052 21.5649 7.0134 19.3971ZM2.28287 48.1997C2.143 48.3008 1.97772 48.361 1.80557 48.3734C1.63343 48.3859 1.46121 48.3502 1.30824 48.2702C1.15526 48.1903 1.02758 48.0693 0.939496 47.9209C0.851415 47.7725 0.806421 47.6024 0.809558 47.4299V39.2882C0.809558 39.0413 0.902469 38.8077 1.0644 38.6325L1.20775 38.5077C1.22323 38.4972 1.23918 38.4875 1.25553 38.4785L3.91281 37.3211C4.41842 40.0926 5.47453 42.7347 7.01871 45.0911L2.27756 48.1997H2.28287Z" fill="#0A60B5"/>
<path d="M19.4 12.6123C24.7199 12.3468 28.6965 14.6032 30.7459 16.1084C29.1929 17.4968 24.9933 20.8443 20.0292 22.7768C19.5883 22.9364 19.1582 23.1244 18.7417 23.3396C17.0265 24.1936 15.5773 25.5002 14.5508 27.1181C13.5243 28.736 12.9595 30.6037 12.9175 32.5193C12.9015 33.1617 12.9334 33.8015 13.0183 34.4306H12.9918C12.9759 35.0863 13.029 36.626 13.966 38.2373C14.7996 39.6761 15.9198 40.446 16.4747 40.7804C16.7507 40.9663 17.1914 41.2317 17.7356 41.5131C18.5264 41.9372 19.3675 42.26 20.2389 42.4741L21.1733 42.7024C23.5412 43.2705 27.1329 44.1332 31.5343 46.4746C31.9803 46.8542 32.4581 47.2338 32.9731 47.6055C32.8138 47.7488 32.6838 47.8709 32.5776 47.9718C31.6697 48.7496 26.687 52.859 19.4 52.2086C16.7916 51.974 14.2694 51.1557 12.0202 49.8141C8.76829 47.8869 6.31012 44.842 4.96953 41.2795C2.96948 35.9719 2.75789 30.1563 4.36693 24.7173C6.33932 18.0542 12.0919 13.1671 18.9461 12.6441L19.4 12.6123ZM56.6443 44.3748C54.7865 42.9734 52.6694 41.954 50.4154 41.3753C48.1614 40.7967 45.8151 40.6703 43.5119 41.0034C43.0262 41.1627 42.5191 41.2954 41.9935 41.3937C37.8443 42.1715 34.4809 39.8911 32.8351 38.447C32.5152 38.1666 32.1849 37.8983 31.8449 37.6427C32.9465 36.6527 34.1748 35.8135 35.4976 35.1473C38.4629 33.674 42.9916 33.7032 48.2664 33.9979C55.5321 34.4094 60.5519 37.9135 62.5535 39.5248C62.7792 39.7027 62.9066 39.9761 62.9066 40.2628V46.8755C62.9102 47.056 62.8611 47.2336 62.7654 47.3867C62.6697 47.5398 62.5314 47.6617 62.3675 47.7374C62.2036 47.8132 62.0212 47.8395 61.8425 47.8133C61.6639 47.787 61.4968 47.7093 61.3616 47.5895C59.9248 46.3313 58.3409 45.2519 56.6443 44.3748ZM33.3501 24.6138C32.8722 25.1368 32.3732 25.6332 31.8475 26.1004C32.8643 26.8676 33.9633 27.5127 35.1287 28.0303C37.9956 29.3098 41.9324 29.5594 47.0107 29.5541C52.4663 29.5326 57.811 28.0119 62.4606 25.158C62.5977 25.0728 62.7106 24.9539 62.7887 24.8126C62.8668 24.6713 62.9074 24.5124 62.9066 24.351V16.2358C62.9098 16.0623 62.8646 15.8914 62.7759 15.7422C62.6872 15.593 62.5587 15.4716 62.4047 15.3916C62.2507 15.3116 62.0774 15.2761 61.9044 15.2893C61.7314 15.3024 61.5654 15.3636 61.4253 15.466C59.96 16.5358 57.7805 17.9003 54.9693 18.9701C53.7819 19.6804 52.5149 20.248 51.1944 20.6611C48.6913 21.436 46.0474 21.6454 43.4535 21.2743C39.9123 20.3797 36.0206 21.6858 33.3501 24.6138Z" fill="#E11312"/>
<path d="M3.9767 40.9079C3.71655 40.1566 3.47232 39.3417 3.25995 38.4736L1.66453 39.1638L1.62471 39.2249L1.61409 39.2859V47.4303C1.61409 47.5551 1.72027 47.6135 1.79991 47.5551L5.86148 44.8819C5.20227 43.836 4.65083 42.726 4.21562 41.5689L3.9767 40.9079ZM59.3255 28.3436L59.1928 27.8259L58.2637 28.171C56.0755 29.0524 53.7922 29.676 51.4599 30.0293L51.4758 30.1195C51.5236 30.4699 51.5422 30.7991 51.5289 31.2292C51.5138 31.8844 51.4428 32.5372 51.3165 33.1803L51.2369 33.5228C54.0104 34.0113 56.6859 34.9483 59.1583 36.2968L59.3149 35.3836C59.4689 34.3696 59.5591 33.3343 59.5883 32.283L59.5936 31.2212C59.5819 30.5101 59.5403 29.7998 59.4689 29.0922L59.429 28.8055L59.3282 28.3436H59.3255ZM1.61674 16.8995V23.5308C1.61674 23.5653 1.62471 23.5945 1.65656 23.6343L3.32366 25.2589L3.47232 24.6669C3.6024 24.1918 3.75637 23.7139 3.93688 23.2335L4.22889 22.5114C4.58461 21.6858 4.99076 20.9266 5.43674 20.2284L5.82166 19.6577L5.74733 19.6152C4.61377 18.9622 3.53511 18.2182 2.52197 17.3906L1.80522 16.7801C1.73089 16.7164 1.61409 16.7721 1.61409 16.8995H1.61674ZM18.1072 40.7884C18.7045 41.1097 19.3629 41.3804 20.0982 41.5901L20.1274 41.5981L20.0849 41.7388L20.1354 41.6008L20.7273 41.7547L22.8351 42.2724C24.9721 42.8192 27.786 43.6687 31.0777 45.3252L31.9882 45.7951L32.0546 45.8508C32.4847 46.2171 32.9466 46.5861 33.443 46.9445L34.2579 47.5365L34.2075 47.5816C37.2603 49.6628 40.6025 50.7672 44.3694 50.576L44.8154 50.5495C48.8477 50.2362 52.5615 48.3116 55.248 45.2402L55.6595 44.7438L55.0383 44.3324C53.8794 43.605 52.6346 43.0245 51.3324 42.6042L50.4909 42.3547C48.3451 41.7693 46.1032 41.623 43.8995 41.9246C43.3671 42.1013 42.8234 42.2423 42.2722 42.3467C38.7734 43.0104 35.5879 41.7945 32.928 39.6204L31.7998 38.6648C30.7436 37.8241 29.5859 37.1196 28.3541 36.5676C26.0419 35.527 22.9599 35.1394 17.6984 35.1076H16.3127C15.8402 35.1155 15.4234 35.1341 15.0093 35.1607L14.5129 35.1952L13.9289 35.2509L13.9554 35.5164C14.0297 36.1588 14.2049 36.8171 14.5182 37.4808L14.7783 37.9799L15.0677 38.4391C15.6491 39.2143 16.2941 39.7001 16.7189 39.9735L17.2976 40.3398L17.5365 40.4779L18.1072 40.7884ZM33.6978 37.1914L33.1244 37.6295L33.9155 38.2878C35.6144 39.631 38.4655 41.2265 41.8475 40.592L42.3333 40.4885L42.8058 40.369L43.3367 40.2044L43.7535 40.1487C45.874 39.8837 48.0245 39.9897 50.1087 40.4619L50.775 40.6265C52.9383 41.2058 54.9789 42.1717 56.7983 43.4776L57.0744 43.682L57.7009 44.0165C59.0457 44.7687 60.3167 45.646 61.497 46.6366L61.8925 46.9737L61.9297 47.0003L61.9589 47.0082L62.0306 46.9949C62.052 46.9849 62.0703 46.9693 62.0837 46.9498C62.0984 46.9279 62.1059 46.9019 62.1049 46.8755V40.2628L62.0916 40.2044L62.0571 40.162L61.8102 39.9655C61.0405 39.365 60.2356 38.811 59.3998 38.3064L59.3414 38.2798C56.453 36.7581 53.3632 35.6543 50.1644 35.0014C49.5204 34.9119 48.8731 34.849 48.2239 34.8129L47.109 34.7545C44.9083 34.6483 42.8801 34.6058 41.0697 34.7226C38.9513 34.858 37.1993 35.2084 35.856 35.8774C35.1013 36.2547 34.3794 36.6942 33.6978 37.1914ZM4.93767 25.6704C4.84742 26.0155 4.76247 26.3686 4.68283 26.7322L4.42799 28.5799L4.35897 28.5108C3.98739 31.0683 4.01426 33.6679 4.4386 36.2172L4.52621 36.1774L4.70672 37.1782C5.19139 39.844 6.20699 42.3853 7.69317 44.6509L8.04092 45.1871C9.2364 46.7652 10.7255 48.0975 12.4264 49.1107C14.5736 50.3916 16.9815 51.1727 19.4717 51.3963C25.7101 51.9538 30.1858 48.8558 31.667 47.6745L31.237 47.3135C29.0283 46.1322 26.91 45.2694 24.7279 44.6058C23.9049 44.3509 23.1085 44.1386 22.1847 43.9156L20.1539 43.4245C18.82 43.0686 17.5487 42.5099 16.3844 41.768L15.7287 41.3406C15.081 40.8893 14.481 40.3319 13.9581 39.6523C13.7044 39.3362 13.4745 39.0017 13.2705 38.6515L13.0316 38.2055C12.4779 37.0898 12.1873 35.862 12.1821 34.6165C12.1551 34.1388 12.1321 33.661 12.1131 33.183V32.4981L12.1397 31.9406C12.2723 30.0802 12.8624 28.2814 13.8576 26.704C14.8529 25.1267 16.2224 23.8196 17.8444 22.899L18.1842 22.7131C18.7497 22.3999 19.3257 22.1451 19.9071 21.9353L20.7194 21.6035L21.5317 21.2425L21.8768 21.0806C24.3659 19.8437 26.7161 18.3451 28.8876 16.6102L29.4159 16.1775L29.2035 16.0421C27.2073 14.7865 24.1226 13.3981 20.2309 13.4061L19.4452 13.4273L19.0018 13.4538C14.7279 13.783 10.892 15.9014 8.23205 19.1241L7.47018 20.1196C6.43471 21.5924 5.64654 23.2243 5.13677 24.951L4.93502 25.6704H4.93767ZM13.7245 32.5405V33.1378L13.751 33.6608L13.8519 33.6475C14.197 33.6104 14.5474 33.5812 14.9058 33.5599L15.803 33.5174C16.1136 33.5068 16.4401 33.5015 16.7959 33.5015H17.7303C23.1988 33.5387 26.4454 33.9502 29.0204 35.1076C29.976 35.5376 30.8945 36.05 31.7653 36.6472C32.7997 35.7731 33.934 35.0246 35.1446 34.4174L35.7711 34.1333C37.2683 33.5228 39.0363 33.2201 40.9662 33.098C43.1801 32.952 45.6701 33.037 48.3115 33.1856C48.7628 33.2122 49.2088 33.2493 49.6415 33.2945L49.7848 32.5936C49.8644 32.1317 49.9096 31.6645 49.9202 31.1893C49.9255 30.9584 49.9228 30.7752 49.9096 30.6L49.8618 30.2284C48.9486 30.3186 47.9982 30.3664 47.0134 30.3691L46.0152 30.3664C41.4121 30.3399 37.6452 30.0452 34.8048 28.7763L34.0827 28.4365C33.1297 27.9591 32.2217 27.3967 31.3697 26.7561L31.898 27.1384C30.9186 27.9374 29.8538 28.6256 28.7231 29.1904C25.9623 30.5602 22.2989 30.7938 15.5561 30.4142C15.0515 30.3854 14.5478 30.342 14.0457 30.2841C13.8519 31.0141 13.743 31.7707 13.7245 32.5405ZM50.7511 21.6354C48.5811 22.2176 46.3232 22.3994 44.088 22.1716L43.2598 22.0654C40.7989 21.4442 38.1231 21.9831 35.8852 23.4856C35.4074 23.8201 34.9561 24.1971 34.5261 24.6139L34.1066 25.0466C33.7986 25.384 33.4798 25.7116 33.151 26.0288L33.5253 26.2677C34.1438 26.6499 34.7862 26.9897 35.4525 27.2871L36.0047 27.5127C38.6487 28.5215 42.251 28.7444 47.0081 28.7391L47.9053 28.7232C48.715 28.6967 49.4981 28.6383 50.2547 28.548L50.3768 28.5268C51.7572 28.2905 53.5092 27.9029 55.1471 27.4755C55.8214 27.3003 56.3975 27.1251 57.093 26.8836C58.8151 26.2346 60.4719 25.4239 62.0412 24.4625L62.0863 24.4148L62.1022 24.351V16.2359L62.081 16.1642C62.0717 16.149 62.0593 16.136 62.0446 16.1259C62.0299 16.1158 62.0133 16.109 61.9957 16.1057C61.9782 16.1025 61.9602 16.1029 61.9429 16.107C61.9256 16.1112 61.9093 16.1189 61.8952 16.1297C60.5387 17.1172 58.5875 18.3543 56.1028 19.3949L55.8745 19.4878C55.3322 19.8064 54.773 20.0953 54.1994 20.3532L53.5836 20.6187C52.8831 20.936 52.1642 21.2108 51.4307 21.4416L50.7511 21.6354ZM20.3185 23.5387L20.0478 23.6396C19.8459 23.7189 19.6467 23.8048 19.4505 23.8971L19.108 24.067C18.9374 24.1507 18.7692 24.2392 18.6037 24.3325C17.8338 24.8023 17.0985 25.4023 16.4109 26.1642C15.8711 26.7623 15.4058 27.4237 15.0252 28.1339L14.7279 28.7418L14.9881 28.7683L15.6464 28.8135L17.3347 28.8984C22.7236 29.1294 25.803 28.8453 27.9983 27.7569C28.9918 27.2608 29.929 26.6591 30.7937 25.9624L31.813 25.0306L32.2962 24.5528L33.1775 23.6237C34.0519 22.7494 35.0545 22.0136 36.1507 21.4416C38.5266 20.1674 41.2263 19.7586 43.7243 20.3904C46.1969 20.7516 48.7191 20.552 51.1041 19.8063C51.5289 19.6736 51.935 19.5356 52.3253 19.3896C52.9624 19.1268 53.5411 18.8427 54.0614 18.556L54.6242 18.2321L55.2427 17.98L54.7569 17.3959C53.9424 16.4634 53.015 15.6359 51.9961 14.9325L51.4121 14.5635C49.2672 13.2881 46.863 12.5115 44.3773 12.2911C39.4185 11.8478 35.3092 13.5229 32.2033 15.9863L31.8369 16.2837C30.1088 17.9295 27.4674 19.8886 24.5367 21.5133C23.2307 22.2512 21.8104 22.9547 20.3212 23.5361L20.3185 23.5387ZM62.8774 25.8536L62.5509 26.05L61.6881 26.5464C61.3749 26.7216 61.0351 26.9021 60.6714 27.0853L60.9395 28.1472C61.0032 28.4179 61.0457 28.6675 61.0722 28.9329C61.3486 31.6824 61.2 34.458 60.6316 37.1622C61.6669 37.8126 62.4818 38.4258 63.0552 38.8877C63.2604 39.0533 63.4258 39.2628 63.5393 39.5008C63.6528 39.7388 63.7114 39.9992 63.7109 40.2628V46.8755L63.6924 47.1356C63.6527 47.4242 63.541 47.6981 63.3677 47.9322C63.1944 48.1662 62.965 48.3529 62.7006 48.4751C62.4362 48.5972 62.1453 48.6509 61.8547 48.6312C61.5641 48.6114 61.2832 48.5189 61.0377 48.3621L60.836 48.2028C59.6781 47.1922 58.4225 46.2993 57.0877 45.5376L56.5567 46.18C53.5915 49.6283 49.4477 51.7972 44.9295 52.1449L44.4623 52.1768C40.1246 52.3944 36.3285 51.0698 32.9864 48.6912L32.6838 48.9381C31.0777 50.223 26.1826 53.6315 19.331 53.0183L18.4922 52.9254C16.061 52.5915 13.7218 51.7717 11.614 50.515L10.9424 50.0955C9.34656 49.0409 7.93945 47.7253 6.77998 46.2039L2.75823 48.8452C2.49874 49.0354 2.19143 49.1496 1.87071 49.1751C1.54999 49.2006 1.22851 49.1363 0.942246 48.9894C0.655984 48.8426 0.416238 48.619 0.249842 48.3436C0.0834463 48.0683 -0.00303372 47.752 8.12764e-05 47.4303V39.2886C8.12764e-05 38.8426 0.169977 38.4126 0.531005 38.033L0.743375 37.8524L0.929198 37.7463L2.92016 36.8808C2.65973 35.4446 2.51767 33.9894 2.49542 32.5299V31.5159C2.52993 29.9523 2.69983 28.4923 2.95202 27.149L0.647808 24.8952C0.444911 24.7305 0.281436 24.5225 0.16936 24.2864C0.0572831 24.0503 -0.000555434 23.7921 8.12764e-05 23.5308V16.8995C8.12764e-05 15.405 1.75213 14.59 2.87769 15.5855C4.02183 16.5942 5.32259 17.5393 6.77467 18.3543C9.70802 14.6564 14.0297 12.2009 18.8877 11.8319L18.9302 12.4132L18.8904 11.8292L19.3576 11.8C24.542 11.5399 28.5001 13.5653 30.7432 15.1103L30.7618 15.0917L31.1839 14.7466C34.5951 12.0389 39.0787 10.2125 44.5154 10.6957C47.2421 10.9374 49.8795 11.7893 52.2324 13.1884C53.8835 14.1626 55.3914 15.5589 56.7771 17.303C58.2427 16.5998 59.6413 15.7645 60.9554 14.8077L61.1758 14.6697C61.4424 14.5323 61.74 14.4662 62.0397 14.4778C62.3394 14.4894 62.631 14.5784 62.8862 14.736C63.1413 14.8937 63.3514 15.1146 63.4959 15.3774C63.6404 15.6402 63.7145 15.936 63.7109 16.2359V24.351L63.6924 24.6112C63.6553 24.8652 63.5632 25.108 63.4224 25.3226C63.2816 25.5372 63.0956 25.7184 62.8774 25.8536Z" fill="black"/>
</g>
<g clip-path="url(#clip1_303_12787)">
<path fill-rule="evenodd" clip-rule="evenodd" d="M78.7263 45.0574V15.1714H82.8806V41.0582H98.1999V45.0574H78.7263ZM103.177 29.3995C104.016 25.0616 107.71 22.2421 112.41 22.2421C117.824 22.2421 121.391 25.4003 121.391 31.5867V40.0489C121.391 41.0165 121.811 41.437 122.734 41.437H123.7V45.0574H122.523C119.837 45.0574 118.244 43.6259 117.824 41.6472C116.984 43.711 114.382 45.5629 110.9 45.5629C106.408 45.5629 102.8 43.2055 102.8 39.2063C102.8 34.5765 106.198 33.2718 111.318 32.3025L117.32 31.1246C117.278 27.7144 115.348 26.031 112.368 26.031C109.849 26.031 108.003 27.5459 107.5 29.6931L103.177 29.3995ZM107.081 39.1229C107.122 40.6795 108.466 41.9842 111.402 41.9842C114.76 41.9842 117.405 39.6268 117.405 35.6276V34.6599L112.62 35.5025C109.515 36.0497 107.081 36.3033 107.081 39.1229ZM129.262 22.7459H132.999L133.124 26.4931C134.299 23.6302 136.775 22.2421 139.755 22.2421C144.706 22.2421 147.141 25.9025 147.141 30.7008V45.0557H143.07V31.7553C143.07 27.7995 141.768 25.7373 138.705 25.7373C135.474 25.7373 133.333 27.7995 133.333 31.7553V45.0574H129.262V22.7459ZM162.363 43.8778C156.864 43.8778 152.962 39.4582 152.962 33.1867C152.962 26.705 156.866 22.2421 162.363 22.2421C165.343 22.2421 167.944 23.8437 168.952 26.1578L168.993 22.7476H172.897V42.6165C172.854 48.7195 168.993 51.8761 163.034 51.8761C158.165 51.8761 154.642 49.3085 153.591 45.4361L157.872 45.1408C158.753 47.0761 160.474 48.214 163.034 48.214C166.643 48.214 168.783 46.5723 168.825 43.4991V40.174C167.692 42.3212 165.006 43.8778 162.363 43.8778ZM157.241 33.145C157.241 37.3544 159.467 40.3008 163.117 40.3008C166.686 40.3008 168.868 37.3544 168.91 33.1434C168.993 28.9774 166.769 26.031 163.117 26.031C159.467 26.031 157.241 28.9774 157.241 33.145ZM184.336 21.7782C184.336 17.6556 186.391 15.1714 190.926 15.1714H197.052V18.7918H190.841C189.414 18.7918 188.407 19.8863 188.407 21.6948V24.1807H196.759V27.7995H188.407V45.0574H184.336V27.7995H178.503V24.1791H184.336V21.7782ZM222.092 45.0557H218.229L218.188 41.4353C217.013 44.2132 214.579 45.5612 211.724 45.5612C206.856 45.5612 204.465 41.8991 204.465 37.0991V22.7476H208.536V36.0497C208.536 40.0055 209.837 42.0693 212.774 42.0693C215.922 42.0693 218.019 40.0055 218.019 36.0497V22.7459H222.09L222.092 45.0557ZM243.521 29.7332C243.058 27.3774 240.876 26.0293 238.275 26.0293C236.135 26.0293 234.163 27.0804 234.204 29.1442C234.204 31.3749 236.89 31.8804 239.366 32.511C243.604 33.5638 247.843 35.1221 247.843 39.2881C247.843 43.6659 243.647 45.5612 239.031 45.5612C233.826 45.5612 229.588 42.6149 229.252 37.9834L233.532 37.7315C233.952 40.214 236.176 41.7723 239.031 41.7723C241.255 41.7723 243.562 41.1834 243.562 39.0779C243.562 36.8889 240.751 36.5102 238.273 35.9212C234.077 34.9119 229.923 33.3536 229.923 29.3144C229.923 24.8097 233.952 22.2404 238.652 22.2404C243.352 22.2404 247.004 25.06 247.718 29.4812L243.521 29.7332ZM253.745 33.9008C253.745 26.7868 257.815 22.2421 264.069 22.2421C269.062 22.2421 273.595 25.4821 273.93 33.5221V35.0787H258.067C258.401 39.2881 260.543 41.7723 264.069 41.7723C266.293 41.7723 268.306 40.4676 269.272 38.2353L273.593 38.6157C272.336 42.8668 268.517 45.5612 264.067 45.5612C257.815 45.5612 253.745 41.0149 253.745 33.9008ZM258.192 31.797H269.483C268.894 27.5442 266.586 26.0293 264.069 26.0293C260.837 26.0293 258.78 28.1765 258.192 31.797Z" fill="white"/>
</g>
<defs>
<clipPath id="clip0_303_12787">
<rect width="63.7109" height="63.7109" fill="white"/>
</clipPath>
<clipPath id="clip1_303_12787">
<rect width="201.876" height="40.0415" fill="white" transform="translate(75.3896 11.8345)"/>
</clipPath>
</defs>
</svg>
