<svg width="207" height="34" viewBox="0 0 207 34" fill="none" xmlns="http://www.w3.org/2000/svg">
<path fill-rule="evenodd" clip-rule="evenodd" d="M16.264 0.807983H47.7333C56.704 0.807983 64 7.98665 64 16.808C64 25.6293 56.704 32.808 47.736 32.808H16.2667C7.296 32.808 0 25.6293 0 16.808C0 7.98665 7.296 0.807983 16.264 0.807983ZM30.7147 25.608C31.1093 26.0187 31.6933 25.9973 32.2107 25.8907L32.216 25.8933C32.456 25.7013 32.1147 25.4586 31.7893 25.2266C31.592 25.088 31.4027 24.9547 31.3467 24.8347C31.528 24.6213 30.992 24.128 30.576 23.7467C30.4337 23.6245 30.3 23.4926 30.176 23.352C29.8827 23.0347 29.7627 22.6373 29.6427 22.2373C29.5627 21.9707 29.4827 21.704 29.3493 21.4587C28.5387 19.608 27.608 17.7707 26.3013 16.2053C25.4613 15.1653 24.504 14.232 23.5467 13.2987C22.9244 12.7024 22.3171 12.0906 21.7253 11.464C21.1227 10.8533 20.76 10.1013 20.3947 9.34665C20.0907 8.71732 19.7867 8.08532 19.3387 7.53332C17.9867 5.57332 13.72 5.03732 13.0933 7.81065C13.0933 7.89598 13.0667 7.94932 12.9893 8.00532C12.6427 8.25598 12.336 8.53865 12.0773 8.87732C11.4427 9.74665 11.3467 11.216 12.136 11.9973L12.1387 11.9467C12.1653 11.5547 12.192 11.184 12.5093 10.904C13.1173 11.4187 14.0453 11.6027 14.752 11.216C15.6053 12.416 15.8773 13.8693 16.152 15.3227C16.3787 16.5387 16.6053 17.7547 17.1707 18.832L17.208 18.8907C17.5387 19.432 17.8747 19.984 18.3013 20.456C18.4587 20.6933 18.776 20.9467 19.0933 21.2C19.512 21.5333 19.9307 21.8666 19.9707 22.1573V22.5387C19.968 23.2987 19.9653 24.0853 20.4613 24.7067C20.736 25.2533 20.0613 25.8 19.5227 25.7333C19.224 25.7733 18.9013 25.696 18.5787 25.6213C18.1387 25.5147 17.7013 25.4133 17.3467 25.6133C17.2453 25.72 17.104 25.72 16.96 25.7253C16.7893 25.7307 16.616 25.736 16.5147 25.912C16.4933 25.9626 16.4453 26.0187 16.3947 26.08C16.2827 26.2133 16.1627 26.36 16.3067 26.4693L16.3467 26.4427C16.5653 26.2773 16.7733 26.1227 17.0667 26.2187C17.0293 26.432 17.1707 26.4907 17.312 26.5467L17.384 26.5786C17.381 26.6289 17.3739 26.6789 17.3627 26.728C17.3387 26.848 17.3173 26.9627 17.4107 27.0667C17.4544 27.0211 17.4953 26.973 17.5333 26.9227C17.632 26.8 17.728 26.6773 17.904 26.6293C18.288 27.136 18.6747 26.9253 19.16 26.664C19.7093 26.368 20.384 26.0027 21.32 26.5173C20.96 26.5013 20.64 26.544 20.4 26.8373C20.3387 26.9013 20.288 26.976 20.3947 27.0613C20.9467 26.7093 21.1787 26.8347 21.3947 26.9547C21.5547 27.04 21.7013 27.1227 21.96 27.0187L22.1467 26.9227C22.56 26.7013 22.984 26.48 23.4773 26.5573C23.1067 26.6613 22.976 26.8906 22.832 27.1386C22.7627 27.264 22.688 27.392 22.5813 27.512C22.5253 27.568 22.5013 27.6347 22.5627 27.7253C23.336 27.664 23.6293 27.472 24.024 27.2133C24.2107 27.0907 24.424 26.9493 24.72 26.8027C25.0507 26.6027 25.3813 26.7306 25.7013 26.856C26.048 26.9893 26.3813 27.1173 26.6907 26.8187C26.7893 26.7307 26.912 26.728 27.0347 26.728C27.0773 26.728 27.1227 26.728 27.168 26.7227C27.0693 26.216 26.528 26.2213 25.9733 26.2266C25.3333 26.2346 24.6853 26.2427 24.7067 25.456C25.2987 25.0587 25.304 24.3707 25.3093 23.72C25.3093 23.56 25.3093 23.408 25.3227 23.2586C25.7573 23.4986 26.2187 23.6853 26.6773 23.8693C27.1093 24.0427 27.5387 24.216 27.9413 24.4293C28.3627 25.096 29.0187 25.976 29.8933 25.9173C29.9147 25.848 29.936 25.792 29.9627 25.7227C30.0133 25.7333 30.0667 25.744 30.12 25.76C30.3493 25.8133 30.5947 25.8747 30.7147 25.608ZM47.8587 18.064C48.3653 18.56 49.0507 18.8373 49.768 18.8373C50.4853 18.8373 51.1707 18.56 51.6773 18.064C51.9271 17.8213 52.1258 17.5312 52.2618 17.2106C52.3978 16.89 52.4683 16.5455 52.4693 16.1973C52.4683 15.8491 52.3978 15.5046 52.2618 15.184C52.1258 14.8635 51.9271 14.5733 51.6773 14.3307C51.3043 13.9666 50.835 13.7169 50.3246 13.6111C49.8143 13.5052 49.2843 13.5477 48.7973 13.7333L47.2507 11.5173L46.1707 12.2427L47.7253 14.4693C47.2818 14.971 47.0483 15.6241 47.0731 16.2933C47.0979 16.9625 47.3792 17.5965 47.8587 18.064ZM43.0133 10.8907C43.4616 11.1077 43.9604 11.1988 44.4564 11.1541C44.9525 11.1095 45.427 10.9309 45.8293 10.6373C46.2891 10.3025 46.6285 9.8284 46.7973 9.28532C46.9644 8.74439 46.9494 8.16357 46.7547 7.63198C46.5569 7.09771 46.1922 6.64139 45.7147 6.33065C45.1838 5.9824 44.5484 5.82924 43.9171 5.89733C43.2858 5.96542 42.6978 6.25053 42.2533 6.70398C41.9647 7.00223 41.7508 7.36449 41.6289 7.7612C41.507 8.15791 41.4807 8.57782 41.552 8.98665C41.6271 9.39424 41.798 9.77814 42.0507 10.1067C42.304 10.44 42.6347 10.7067 43.0133 10.8907ZM43.0133 26.2293C43.4617 26.4458 43.9604 26.5365 44.4564 26.4919C44.9523 26.4473 45.4268 26.269 45.8293 25.976C46.2891 25.6412 46.6285 25.1671 46.7973 24.624C46.9644 24.0831 46.9494 23.5022 46.7547 22.9707C46.5569 22.4364 46.1922 21.9801 45.7147 21.6693C45.1839 21.3206 44.5485 21.1671 43.917 21.2352C43.2856 21.3033 42.6975 21.5887 42.2533 22.0427C41.9646 22.3408 41.7505 22.703 41.6286 23.0998C41.5067 23.4965 41.4804 23.9165 41.552 24.3253C41.6271 24.7329 41.798 25.1168 42.0507 25.4453C42.304 25.7787 42.6347 26.0453 43.0133 26.2293ZM45.4933 16.8533V15.5413H41.36C41.2553 15.1414 41.057 14.7721 40.7813 14.464L42.3387 12.2053L41.2053 11.4693L39.6507 13.728C39.1741 13.562 38.6608 13.5314 38.1679 13.6397C37.675 13.7479 37.2218 13.9908 36.8587 14.3413C36.6099 14.5823 36.4118 14.8707 36.2763 15.1895C36.1407 15.5082 36.0704 15.8509 36.0693 16.1973C36.0693 16.8933 36.3547 17.5627 36.8587 18.0533C37.2218 18.4038 37.675 18.6467 38.1679 18.755C38.6608 18.8632 39.1741 18.8327 39.6507 18.6666L41.2053 20.9253L42.3253 20.1893L40.7813 17.9306C41.057 17.6225 41.2553 17.2533 41.36 16.8533H45.4933Z" fill="#1a1a1a"/>
<path fill-rule="evenodd" clip-rule="evenodd" d="M147.843 6.31398C146.48 5.31398 144.598 4.80798 142.254 4.80798C140.564 4.80798 139.025 5.17598 137.681 5.89998C136.339 6.62167 135.232 7.71182 134.489 9.04198C133.713 10.403 133.321 12.066 133.321 13.986C133.321 15.451 133.553 16.769 134.012 17.903C134.469 19.034 135.115 20.003 135.927 20.782C136.745 21.5627 137.714 22.1677 138.775 22.56C139.89 22.9681 141.07 23.1727 142.257 23.164C144.097 23.164 145.698 22.794 147.017 22.065C148.305 21.3664 149.364 20.3126 150.07 19.029C150.778 17.742 151.137 16.249 151.137 14.591C151.137 14.543 151.132 14.391 151.124 14.136C151.119 13.9701 151.11 13.8043 151.095 13.639H144.441V15.801H147.858L147.843 15.9C147.681 16.927 147.361 17.797 146.893 18.485C146.437 19.1611 145.802 19.6976 145.06 20.035C144.317 20.373 143.434 20.54 142.46 20.531C141.152 20.515 140.045 20.232 139.172 19.69C138.298 19.1475 137.611 18.3514 137.202 17.408C136.77 16.442 136.552 15.29 136.552 13.984C136.552 12.678 136.773 11.519 137.207 10.541C137.647 9.55898 138.307 8.78398 139.177 8.24098C140.047 7.69898 141.154 7.43198 142.459 7.44798C143.76 7.44798 144.849 7.77198 145.691 8.41198C146.514 9.03498 147.117 9.87398 147.491 10.907L150.606 10.452C150.116 8.68798 149.187 7.29398 147.843 6.30998V6.31398ZM188.276 10.088C187.271 9.47398 186.087 9.16798 184.72 9.16798C183.354 9.16798 182.192 9.47398 181.259 10.088C181.071 10.2128 180.89 10.3487 180.718 10.495V9.53898H177.865V28.808H181.119V22.201C181.177 22.242 181.234 22.284 181.294 22.323C182.249 22.941 183.431 23.25 184.842 23.25C186.172 23.25 187.334 22.941 188.324 22.323C189.309 21.7105 190.106 20.8386 190.628 19.803C191.172 18.74 191.446 17.542 191.446 16.208C191.446 14.874 191.169 13.653 190.616 12.595C190.083 11.5596 189.274 10.692 188.279 10.088H188.276ZM187.633 18.428C187.369 19.089 186.965 19.616 186.421 20.002C185.877 20.389 185.184 20.582 184.344 20.582C183.503 20.582 182.778 20.398 182.246 20.032C181.715 19.667 181.326 19.154 181.082 18.494C180.835 17.836 180.713 17.073 180.713 16.208C180.713 15.343 180.835 14.57 181.082 13.918C181.326 13.262 181.71 12.751 182.227 12.386C182.745 12.02 183.414 11.836 184.236 11.836C185.102 11.836 185.818 12.031 186.379 12.422C186.942 12.813 187.356 13.34 187.626 14.005C187.892 14.667 188.027 15.403 188.027 16.21C188.027 17.017 187.895 17.766 187.633 18.428ZM206.421 14.177C206.354 13.6187 206.226 13.0695 206.04 12.539C205.834 11.9467 205.525 11.3951 205.129 10.909C204.718 10.399 204.164 9.97798 203.469 9.64898C202.773 9.31898 201.887 9.15398 200.818 9.15398C199.461 9.15398 198.316 9.42798 197.389 9.97498C196.89 10.27 196.459 10.619 196.089 11.022V5.09098H193.209V22.877H196.479V16.021C196.479 15.207 196.576 14.538 196.773 14.014C196.97 13.492 197.229 13.08 197.556 12.779C197.867 12.4872 198.241 12.2694 198.648 12.142C199.043 12.0186 199.454 11.9556 199.868 11.955C200.636 11.955 201.244 12.107 201.695 12.413C202.147 12.719 202.486 13.108 202.713 13.581C202.94 14.055 203.084 14.547 203.149 15.058C203.212 15.568 203.244 16.033 203.244 16.454V22.877H206.513V15.428C206.513 15.106 206.483 14.69 206.426 14.175L206.421 14.177ZM160.703 9.65598C160.259 9.68298 159.823 9.76198 159.401 9.88598C158.995 10.0039 158.607 10.1754 158.247 10.396C157.845 10.6225 157.489 10.922 157.197 11.279C157.066 11.4409 156.946 11.6116 156.838 11.79L156.718 11.985V9.71098H154.028V22.769H157.102V16.129C157.102 15.624 157.169 15.143 157.302 14.704C157.436 14.264 157.646 13.864 157.927 13.519C158.209 13.172 158.578 12.885 159.027 12.662C159.494 12.4089 160.011 12.2604 160.541 12.227C161.062 12.187 161.533 12.22 161.945 12.319V9.70198C161.534 9.64382 161.117 9.6284 160.703 9.65598ZM74 5.05798V22.805H87.254V20.124H77.01V5.05798H74ZM94.322 9.26998C91.434 9.26998 89.272 10.518 88.394 12.696L88.169 13.255L90.646 14.731L90.982 13.921C91.556 12.542 92.618 11.901 94.322 11.901C96.025 11.901 97 12.661 96.982 14.163C96.982 14.225 96.977 14.409 96.977 14.409C96.977 14.409 94.723 14.747 93.795 14.927C89.833 15.7 88.172 17.093 88.172 19.377C88.172 20.593 88.905 21.909 90.242 22.647C91.045 23.091 92.092 23.257 93.247 23.257C94.007 23.257 94.745 23.153 95.431 22.96C96.987 22.484 97.419 21.548 97.419 21.548V22.771H99.995V14.018C99.995 11.043 97.875 9.26798 94.325 9.26798L94.322 9.26998ZM96.99 18.611C96.99 19.531 95.903 20.826 93.371 20.826C92.658 20.826 92.15 20.651 91.813 20.391C91.6157 20.2446 91.4615 20.0476 91.3667 19.821C91.2718 19.5943 91.2398 19.3463 91.274 19.103C91.302 18.913 91.426 18.498 91.893 18.14C92.369 17.772 93.209 17.512 94.509 17.25C95.3337 17.0891 96.1605 16.9388 96.989 16.799L96.99 18.611ZM169.718 9.26998C166.83 9.26998 164.668 10.518 163.79 12.696L163.566 13.255L166.042 14.731L166.379 13.921C166.952 12.542 168.015 11.901 169.719 11.901C171.421 11.901 172.396 12.661 172.379 14.163C172.379 14.225 172.374 14.409 172.374 14.409C172.374 14.409 170.119 14.747 169.192 14.927C165.229 15.7 163.568 17.093 163.568 19.377C163.568 20.593 164.301 21.909 165.638 22.647C166.441 23.091 167.488 23.257 168.643 23.257C169.404 23.257 170.143 23.153 170.827 22.96C172.384 22.484 172.815 21.548 172.815 21.548V22.771H175.391V14.018C175.391 11.043 173.271 9.26798 169.721 9.26798L169.718 9.26998ZM172.386 18.611C172.386 19.531 171.299 20.826 168.768 20.826C168.054 20.826 167.546 20.651 167.209 20.391C167.012 20.2445 166.858 20.0476 166.763 19.8209C166.668 19.5943 166.636 19.3463 166.67 19.103C166.698 18.913 166.823 18.498 167.29 18.14C167.765 17.772 168.606 17.512 169.905 17.25C170.975 17.036 172.386 16.799 172.386 16.799V18.611ZM109.511 9.26998C109.152 9.26998 108.803 9.29198 108.466 9.33598C106.159 9.65598 105.484 10.736 105.484 10.736V9.65598H102.598V22.778H105.608V15.5C105.608 13.027 107.563 11.9 109.381 11.9C111.346 11.9 112.302 12.875 112.302 14.878V22.776H115.312V14.496C115.312 11.27 113.09 9.26698 109.512 9.26698L109.511 9.26998ZM127.87 9.64698V10.998C127.87 10.998 127.132 9.26798 123.778 9.26798C119.611 9.26798 117.02 11.922 117.02 16.191C117.02 18.601 117.855 20.498 119.33 21.696C120.474 22.628 122.005 23.106 123.83 23.138C125.097 23.161 125.92 22.841 126.431 22.54C127.416 21.963 127.781 21.413 127.781 21.413C127.781 21.413 127.738 21.843 127.663 22.425C127.608 22.846 127.506 23.143 127.506 23.143C127.047 24.647 125.708 25.516 123.753 25.516C121.798 25.516 120.613 24.923 120.379 23.754L117.454 24.559C117.96 26.806 120.247 28.149 123.571 28.149C125.831 28.149 127.603 27.583 128.838 26.464C130.082 25.337 130.715 23.711 130.715 21.632V9.64698H127.87ZM127.681 16.313C127.681 18.94 126.289 20.508 123.961 20.508C121.464 20.508 120.032 18.935 120.032 16.194C120.032 13.453 121.464 11.903 123.96 11.903C126.234 11.903 127.661 13.464 127.681 15.978V16.313Z" fill="#1a1a1a"/>
</svg>
