<svg width="202" height="60" viewBox="0 0 202 60" fill="none" xmlns="http://www.w3.org/2000/svg">
<path d="M26.783 0.125466C26.491 -0.0420309 26.1314 -0.0418078 25.8395 0.126052L2.0106 13.8307C1.38479 14.1906 1.38019 15.0887 2.00228 15.455L25.8312 29.4845C26.1273 29.6588 26.4951 29.659 26.7914 29.4851L50.689 15.4556C51.3125 15.0896 51.3079 14.1898 50.6807 13.8301L26.783 0.125466Z" fill="#ED4E01"/>
<path d="M1.42099 16.6674L25.2959 30.5189C25.5888 30.6889 25.7693 31.0029 25.7692 31.3428L25.7687 59.0472C25.7687 59.7796 24.9795 60.2373 24.3482 59.8711L0.473381 46.0191C0.180441 45.8491 -6.92072e-06 45.535 1.99077e-10 45.1952L0.00056416 17.4912C0.000579074 16.7589 0.78971 16.3012 1.42099 16.6674Z" fill="#ED4E01"/>
<path d="M49.8939 43.3542C49.8939 43.9012 49.6035 44.4071 49.1311 44.6829L32.4207 54.4379C31.3951 55.0366 30.1066 54.2969 30.1066 53.1093L30.1062 33.5683C30.1062 33.0213 30.3967 32.5155 30.8691 32.2397L47.5795 22.4848C48.6051 21.8861 49.8935 22.6258 49.8935 23.8134L49.8939 43.3542ZM27.3083 32.685V59.0557C27.3083 59.7702 28.0615 60.221 28.6782 59.8887L28.7075 59.8723L51.1539 46.7308C52.5 45.9615 52.6924 45.3846 52.6918 44.2375L52.6918 17.8674C52.6918 17.1415 51.9144 16.6879 51.2925 17.0508L28.8462 30C28.0769 30.5769 27.3077 31.1538 27.3083 32.685Z" fill="#ED4E01"/>
<path d="M51.9231 21.1598L30.4226 56.9231L28.4616 55.7633L49.9621 20L51.9231 21.1598Z" fill="#ED4E01"/>
<path d="M87.6813 50L72 10H78.2385L90.8856 42.9149L103.561 10H109.771L94.0899 50H87.6813Z" fill="black"/>
<path d="M137.284 50L122.113 20.6834V50H116.3V10H122.651L138.134 40.1255L153.645 10H159.969V50H154.184V20.6834L139.013 50H137.284Z" fill="black"/>
<path d="M202 44.2817C202 45.0628 201.849 45.8066 201.546 46.5132C201.244 47.2013 200.828 47.8057 200.299 48.3264C199.769 48.847 199.145 49.2562 198.427 49.5537C197.728 49.8512 196.981 50 196.187 50H175.855C175.061 50 174.305 49.8512 173.587 49.5537C172.887 49.2562 172.273 48.847 171.743 48.3264C171.214 47.8057 170.798 47.2013 170.496 46.5132C170.193 45.8066 170.042 45.0628 170.042 44.2817V15.7183C170.042 14.9372 170.193 14.2027 170.496 13.5146C170.798 12.808 171.214 12.2036 171.743 11.7015C172.273 11.1808 172.887 10.7717 173.587 10.4742C174.305 10.1581 175.061 10 175.855 10H196.187C196.981 10 197.728 10.1581 198.427 10.4742C199.145 10.7717 199.769 11.1808 200.299 11.7015C200.828 12.2036 201.244 12.808 201.546 13.5146C201.849 14.2027 202 14.9372 202 15.7183V44.2817ZM175.855 15.7183V44.2817H196.187V15.7183H175.855Z" fill="black"/>
<path d="M193.107 13.5821L197.607 16.1378L179.103 47.665L174.603 45.1093L193.107 13.5821Z" fill="black"/>
</svg>
