<svg width="166" height="32" viewBox="0 0 166 32" fill="none" xmlns="http://www.w3.org/2000/svg">
<g clip-path="url(#clip0_191_10796)">
<path d="M96.0279 4.22936H101.469V26.9077H97.4012V10.7423L91.1304 26.9077H87.4505L81.1795 10.7163V26.9077H77.1112V4.22936H82.553L89.316 21.7181L96.0794 4.22936H96.0279ZM119.868 14.1673C120.593 15.4648 120.956 16.9697 120.956 18.6304C120.956 20.291 120.593 21.77 119.868 23.0934C119.142 24.3907 118.132 25.4287 116.836 26.1552C115.54 26.8817 114.038 27.245 112.378 27.245C110.72 27.245 109.166 26.8817 107.87 26.1292C106.575 25.3768 105.564 24.3648 104.838 23.0415C104.112 21.7441 103.75 20.265 103.75 18.6304C103.75 16.9956 104.112 15.4906 104.838 14.1933C105.564 12.8959 106.6 11.884 107.896 11.1314C109.192 10.379 110.694 10.0157 112.378 10.0157C114.063 10.0157 115.54 10.379 116.836 11.1055C118.132 11.8321 119.142 12.8699 119.868 14.1673ZM117.018 18.6304C117.018 17.6443 116.836 16.7361 116.447 15.9577C116.059 15.1793 115.515 14.5566 114.789 14.1414C114.089 13.7262 113.26 13.5186 112.353 13.5186C111.446 13.5186 110.616 13.7262 109.891 14.1414C109.192 14.5566 108.622 15.1534 108.233 15.9318C107.844 16.7102 107.636 17.6184 107.636 18.6304C107.636 19.6423 107.844 20.5505 108.233 21.3289C108.622 22.1073 109.192 22.7041 109.891 23.1193C110.591 23.5345 111.42 23.742 112.353 23.742C113.286 23.742 114.063 23.5345 114.789 23.1193C115.488 22.7041 116.059 22.1073 116.447 21.3289C116.836 20.5505 117.018 19.6423 117.018 18.6304ZM135.649 3.89205H139.562V26.8817H135.649V24.9616C135.13 25.6622 134.456 26.2071 133.602 26.6223C132.772 27.0374 131.761 27.245 130.596 27.245C129.093 27.245 127.745 26.8817 126.579 26.1811C125.413 25.4806 124.506 24.4686 123.858 23.1712C123.21 21.8738 122.899 20.3429 122.899 18.6044C122.899 16.8659 123.21 15.3869 123.832 14.0895C124.454 12.7921 125.335 11.7801 126.475 11.0537C127.616 10.3271 128.938 9.96379 130.466 9.96379C131.658 9.96379 132.669 10.1455 133.523 10.5346C134.379 10.9239 135.079 11.4428 135.649 12.1175V3.81421V3.89205ZM135.778 18.6304C135.778 17.6443 135.597 16.7361 135.234 15.9577C134.871 15.1793 134.353 14.5566 133.68 14.1414C133.006 13.7262 132.228 13.5186 131.321 13.5186C130.362 13.5186 129.559 13.7262 128.885 14.1414C128.211 14.5566 127.693 15.1793 127.331 15.9577C126.968 16.7361 126.787 17.6443 126.787 18.6304C126.787 19.6163 126.968 20.5245 127.331 21.303C127.693 22.0814 128.211 22.7041 128.911 23.1193C129.611 23.5345 130.414 23.742 131.347 23.742C132.28 23.742 133.006 23.5345 133.68 23.1193C134.353 22.7041 134.871 22.0814 135.26 21.303C135.623 20.5245 135.804 19.6163 135.804 18.6304H135.778ZM154.591 10.379H158.504V26.9077H154.591V25.0394C154.047 25.7401 153.373 26.2849 152.518 26.6741C151.688 27.0633 150.678 27.2709 149.512 27.2709C148.009 27.2709 146.661 26.9077 145.496 26.2071C144.329 25.5065 143.422 24.4945 142.801 23.1971C142.153 21.8998 141.842 20.3689 141.842 18.6304C141.842 16.8919 142.153 15.4129 142.775 14.1154C143.396 12.8181 144.278 11.8061 145.418 11.0795C146.558 10.353 147.879 9.98975 149.409 9.98975C150.627 9.98975 151.663 10.1973 152.544 10.6125C153.425 11.0277 154.099 11.5726 154.591 12.2472V10.3271V10.379ZM154.721 18.6304C154.721 17.6443 154.539 16.7361 154.177 15.9577C153.814 15.1793 153.295 14.5566 152.621 14.1414C151.948 13.7262 151.171 13.5186 150.264 13.5186C149.305 13.5186 148.502 13.7262 147.828 14.1414C147.154 14.5566 146.636 15.1793 146.273 15.9577C145.91 16.7361 145.728 17.6443 145.728 18.6304C145.728 19.6163 145.91 20.5245 146.273 21.303C146.636 22.0814 147.154 22.7041 147.854 23.1193C148.553 23.5345 149.357 23.742 150.289 23.742C151.222 23.742 151.948 23.5345 152.621 23.1193C153.295 22.7041 153.814 22.0814 154.202 21.303C154.566 20.5245 154.747 19.6163 154.747 18.6304H154.721ZM161.769 3.89205V26.8817H165.682V3.89205H161.769Z" fill="white"/>
<path d="M24.0918 0.648692L29.715 10.3791L18.1319 30.4885C17.8986 30.8778 17.4841 31.1372 17.0176 31.1372H6.54875C6.31553 31.1372 6.08232 31.0853 5.90092 30.9556C5.71953 30.8518 5.53814 30.6702 5.43448 30.4885L0.20006 21.4068C-0.0331579 21.0177 -0.0331579 20.4987 0.20006 20.1095L11.4204 0.648692C11.524 0.441111 11.7054 0.285424 11.8868 0.181633C12.0682 0.0778423 12.3014 0 12.5347 0H23.0035C23.4699 0 23.8846 0.259477 24.1178 0.648692H24.0918ZM59.2559 20.1095L48.0355 0.648692C47.9318 0.441111 47.7505 0.285424 47.569 0.181633C47.3877 0.0778423 47.1545 0 46.9212 0H36.4524C35.986 0 35.5713 0.259477 35.3381 0.648692L29.715 10.3791L41.2981 30.4885C41.5313 30.8778 41.9459 31.1372 42.4124 31.1372H52.8812C53.1144 31.1372 53.3477 31.0853 53.5291 30.9556C53.7104 30.8518 53.8919 30.6702 53.9955 30.4885L59.23 21.4068C59.4632 21.0177 59.4632 20.4987 59.23 20.1095H59.2559Z" fill="#62DE61"/>
<path d="M17.7431 10.3791H29.7149L24.0918 0.648692C23.8586 0.259477 23.444 0 22.9775 0H12.5087C12.2755 0 12.0423 0.0518947 11.8608 0.181633L17.7431 10.3791Z" fill="url(#paint0_linear_191_10796)"/>
<path d="M17.744 10.3791L11.8617 0.181641C11.6803 0.285431 11.4989 0.467066 11.3952 0.6487L0.174913 20.1095C-0.0583042 20.4987 -0.0583042 21.0177 0.174913 21.4068L5.40935 30.4885C5.51299 30.6962 5.69439 30.8518 5.87578 30.9556L17.744 10.3791Z" fill="url(#paint1_linear_191_10796)"/>
<path d="M29.7158 10.3792H17.744L5.87581 30.9557C6.0572 31.0595 6.29042 31.1374 6.52363 31.1374H16.9925C17.4589 31.1374 17.8736 30.8778 18.1068 30.4887L29.6898 10.3792H29.7158Z" fill="#09AF58"/>
<path d="M59.2576 21.4069C59.3612 21.1993 59.4389 20.9917 59.4389 20.7582H47.6744L41.7921 30.9556C41.9735 31.0594 42.2068 31.1373 42.44 31.1373H52.9088C53.3753 31.1373 53.7899 30.8778 54.0231 30.4886L59.2576 21.4069Z" fill="#09AF58"/>
<path d="M36.4271 0C36.1939 0 35.9607 0.0518947 35.7794 0.181633L47.6475 20.7581H59.412C59.412 20.5246 59.3602 20.3171 59.2307 20.1095L48.0103 0.648692C47.7771 0.259477 47.3625 0 46.8961 0H36.4271Z" fill="url(#paint2_linear_191_10796)"/>
<path d="M41.764 30.9556L47.6463 20.7581L35.7781 0.181641C35.5967 0.285431 35.4153 0.467066 35.3117 0.6487L29.6885 10.3791L41.2717 30.4885C41.3754 30.6962 41.5567 30.8518 41.7381 30.9556H41.764Z" fill="url(#paint3_linear_191_10796)"/>
</g>
<defs>
<linearGradient id="paint0_linear_191_10796" x1="25.2061" y1="12.9739" x2="16.326" y2="-2.40285" gradientUnits="userSpaceOnUse">
<stop stop-color="#BFF9B4"/>
<stop offset="1" stop-color="#80EE64"/>
</linearGradient>
<linearGradient id="paint1_linear_191_10796" x1="1.39283" y1="28.3609" x2="16.2189" y2="2.68979" gradientUnits="userSpaceOnUse">
<stop stop-color="#80EE64"/>
<stop offset="0.18" stop-color="#7BEB63"/>
<stop offset="0.36" stop-color="#6FE562"/>
<stop offset="0.55" stop-color="#5ADA60"/>
<stop offset="0.74" stop-color="#3DCA5D"/>
<stop offset="0.93" stop-color="#18B759"/>
<stop offset="1" stop-color="#09AF58"/>
</linearGradient>
<linearGradient id="paint2_linear_191_10796" x1="55.0846" y1="23.2751" x2="40.2585" y2="-2.39597" gradientUnits="userSpaceOnUse">
<stop stop-color="#BFF9B4"/>
<stop offset="1" stop-color="#80EE64"/>
</linearGradient>
<linearGradient id="paint3_linear_191_10796" x1="46.1174" y1="28.4646" x2="31.2654" y2="2.79362" gradientUnits="userSpaceOnUse">
<stop stop-color="#80EE64"/>
<stop offset="0.18" stop-color="#7BEB63"/>
<stop offset="0.36" stop-color="#6FE562"/>
<stop offset="0.55" stop-color="#5ADA60"/>
<stop offset="0.74" stop-color="#3DCA5D"/>
<stop offset="0.93" stop-color="#18B759"/>
<stop offset="1" stop-color="#09AF58"/>
</linearGradient>
<clipPath id="clip0_191_10796">
<rect width="166" height="32" fill="white"/>
</clipPath>
</defs>
</svg>
