<svg width="148" height="40" viewBox="0 0 148 40" fill="none" xmlns="http://www.w3.org/2000/svg">
<path fill-rule="evenodd" clip-rule="evenodd" d="M68 16C64.2723 16 61.14 13.4503 60.252 10H51.0827C49.1273 10 47.4587 11.4137 47.1373 13.3423L46.8083 15.3153C46.4963 17.1883 45.5487 18.8183 44.2087 20C45.5487 21.1817 46.4963 22.8117 46.8083 24.6847L47.1373 26.6577C47.4587 28.5863 49.1273 30 51.0827 30H52.252C53.14 26.5497 56.2723 24 60 24C64.4183 24 68 27.5817 68 32C68 36.4183 64.4183 40 60 40C56.2723 40 53.14 37.4503 52.252 34H51.0827C47.172 34 43.8347 31.1727 43.1917 27.3153L42.8627 25.3423C42.5413 23.4137 40.8727 22 38.9173 22H35.748C34.86 25.4503 31.7277 28 28 28C24.2723 28 21.14 25.4503 20.252 22H15.748C14.86 25.4503 11.7277 28 8 28C3.58173 28 0 24.4183 0 20C0 15.5817 3.58173 12 8 12C11.7277 12 14.86 14.5497 15.748 18H20.252C21.14 14.5497 24.2723 12 28 12C31.7277 12 34.86 14.5497 35.748 18H38.9173C40.8727 18 42.5413 16.5863 42.8627 14.6577L43.1917 12.6847C43.8347 8.82733 47.172 6 51.0827 6H60.252C61.14 2.54967 64.2723 0 68 0C72.4183 0 76 3.58167 76 8C76 12.4183 72.4183 16 68 16ZM68 12C70.209 12 72 10.209 72 8C72 5.791 70.209 4 68 4C65.791 4 64 5.791 64 8C64 10.209 65.791 12 68 12ZM8 24C10.209 24 12 22.209 12 20C12 17.791 10.209 16 8 16C5.79087 16 4 17.791 4 20C4 22.209 5.79087 24 8 24ZM32 20C32 22.209 30.209 24 28 24C25.791 24 24 22.209 24 20C24 17.791 25.791 16 28 16C30.209 16 32 17.791 32 20ZM64 32C64 34.209 62.209 36 60 36C57.791 36 56 34.209 56 32C56 29.791 57.791 28 60 28C62.209 28 64 29.791 64 32Z" fill="#EA4B71"/>
<path fill-rule="evenodd" clip-rule="evenodd" d="M124.006 17.2956V17.1053C125.401 16.4063 126.797 15.1989 126.797 12.8163C126.797 9.38495 123.974 7.31995 120.073 7.31995C116.076 7.31995 113.221 9.51195 113.221 12.8796C113.221 15.1673 114.553 16.4063 116.013 17.1053V17.2956C114.395 17.8676 112.46 19.5833 112.46 22.4426C112.46 25.9053 115.315 28.3199 120.041 28.3199C124.767 28.3199 127.527 25.9053 127.527 22.4426C127.527 19.5833 125.623 17.8993 124.006 17.2956ZM120.041 10.2429C121.627 10.2429 122.8 11.2593 122.8 12.9749C122.8 14.6906 121.595 15.7073 120.041 15.7073C118.487 15.7073 117.186 14.6906 117.186 12.9749C117.186 11.2276 118.423 10.2429 120.041 10.2429ZM120.041 25.2699C118.201 25.2699 116.71 24.0946 116.71 22.0929C116.71 20.2823 117.947 18.9159 120.009 18.9159C122.039 18.9159 123.276 20.2503 123.276 22.1566C123.276 24.0946 121.849 25.2699 120.041 25.2699Z" fill="#1a1a1a"/>
<path d="M132.42 28.0024H136.48V19.3927C136.48 16.565 138.193 15.326 140.128 15.326C142.031 15.326 143.522 16.597 143.522 19.202V28.0024H147.582V18.376C147.582 14.214 145.171 11.7997 141.397 11.7997C139.018 11.7997 137.685 12.7527 136.734 13.9917H136.48L136.131 12.1173H132.42V28.0024Z" fill="#1a1a1a"/>
<path d="M96.48 28.0024H92.42V12.1173H96.131L96.48 13.9917H96.7337C97.6853 12.7527 99.0177 11.7997 101.397 11.7997C105.171 11.7997 107.582 14.214 107.582 18.376V28.0024H103.522V19.202C103.522 16.597 102.031 15.326 100.128 15.326C98.193 15.326 96.48 16.565 96.48 19.3927V28.0024Z" fill="#1a1a1a"/>
</svg>
