<svg width="41" height="40" viewBox="0 0 41 40" fill="none" xmlns="http://www.w3.org/2000/svg">
<path d="M40.4852 25.0787L35.1412 15.801L37.9617 11.059C38.1871 10.6632 38.1871 10.1739 37.9617 9.77802L35.1412 5.03608C34.9983 4.78043 34.7261 4.62099 34.4265 4.62099H24.008L21.6054 0.415092C21.4624 0.159439 21.1903 0 20.8907 0H15.3268C15.0271 0 14.755 0.159439 14.6121 0.415092L9.26809 9.69006H3.70421C3.40458 9.69006 3.13243 9.84949 2.98948 10.1051L0.169061 14.8471C-0.0563535 15.2429 -0.0563535 15.7323 0.169061 16.1281L4.94124 24.7351L2.53866 28.941C2.31324 29.3368 2.31324 29.8261 2.53866 30.222L5.35908 34.9639C5.50203 35.2196 5.77417 35.379 6.07381 35.379H16.4923L18.8949 39.5849C19.0379 39.8406 19.31 40 19.6096 40H25.1735C25.4732 40 25.7453 39.8406 25.8883 39.5849L31.2322 30.3099H36.0044C36.304 30.3099 36.5762 30.1505 36.7191 29.8949L39.5396 25.1529C39.765 24.7571 39.765 24.2677 39.5396 23.8719L40.4852 25.0787Z" fill="#1a1a1a" fill-opacity="0.3"/>
<path d="M25.1735 39.9999H19.6097L16.4924 34.9639H6.07383L9.26811 29.9278H14.6121L2.9895 10.3827H9.26811L15.3268 0.415039L18.1472 5.45112L15.3268 10.3827H36.8456L34.0252 15.1247L39.3691 24.3996H34.0252L31.2322 19.468L20.2419 39.9999H25.1735Z" fill="white"/>
<path d="M27.5762 17.1288H13.3586L20.242 28.7514L27.5762 17.1288Z" fill="#1a1a1a" fill-opacity="0.3"/>
</svg>
