<svg width="100" height="30" viewBox="0 0 100 30" fill="none" xmlns="http://www.w3.org/2000/svg">
<path d="M13.3915 0.0627979C13.2455 -0.0209506 13.0657 -0.020839 12.9198 0.0630906L1.0053 6.91543C0.692394 7.09539 0.690093 7.54442 1.00114 7.72755L12.9156 14.7423C13.0636 14.8295 13.2475 14.8296 13.3957 14.7426L25.3445 7.72785C25.6562 7.54485 25.6539 7.09497 25.3404 6.91514L13.3915 0.0627979Z" fill="#ED4E01"/>
<path d="M0.710495 8.33374L12.6479 15.2595C12.7944 15.3445 12.8846 15.5015 12.8846 15.6715L12.8843 29.5237C12.8843 29.8899 12.4897 30.1187 12.1741 29.9356L0.236691 23.0096C0.0902206 22.9246 -3.46036e-06 22.7676 0 22.5977L0.00028208 8.74568C0.000289537 8.37949 0.394855 8.15064 0.710495 8.33374Z" fill="#ED4E01"/>
<path d="M24.947 21.6772C24.947 21.9507 24.8017 22.2036 24.5655 22.3415L16.2103 27.219C15.6975 27.5184 15.0533 27.1485 15.0533 26.5547L15.0531 16.7842C15.0531 16.5107 15.1983 16.2578 15.4345 16.1199L23.7897 11.2425C24.3025 10.9431 24.9468 11.313 24.9468 11.9068L24.947 21.6772ZM13.6541 16.3426V29.5279C13.6541 29.8852 14.0308 30.1106 14.3391 29.9444L14.3538 29.9362L25.5769 23.3654C26.25 22.9808 26.3462 22.6924 26.3459 22.1188L26.3459 8.93378C26.3459 8.57084 25.9572 8.344 25.6462 8.52548L14.4231 15.0001C14.0385 15.2885 13.6539 15.577 13.6541 16.3426Z" fill="#ED4E01"/>
<path d="M25.9616 10.58L15.2113 28.4616L14.2308 27.8817L24.981 10.0001L25.9616 10.58Z" fill="#ED4E01"/>
<path d="M42.1865 25L34.3459 5H37.4651L43.7887 21.4575L50.1264 5H53.2315L45.3908 25H42.1865Z" fill="white"/>
<path d="M66.9877 25L59.4023 10.3417V25H56.4957V5H59.6716L67.413 20.0628L75.1686 5H78.3304V25H75.438V10.3417L67.8526 25H66.9877Z" fill="white"/>
<path d="M99.3459 22.1409C99.3459 22.5314 99.2703 22.9033 99.1191 23.2566C98.9678 23.6007 98.7599 23.9028 98.4952 24.1632C98.2305 24.4235 97.9186 24.6281 97.5594 24.7768C97.2097 24.9256 96.8363 25 96.4393 25H86.2735C85.8765 25 85.4984 24.9256 85.1392 24.7768C84.7894 24.6281 84.4822 24.4235 84.2176 24.1632C83.9529 23.9028 83.745 23.6007 83.5937 23.2566C83.4425 22.9033 83.3669 22.5314 83.3669 22.1409V7.85914C83.3669 7.46862 83.4425 7.10135 83.5937 6.75732C83.745 6.404 83.9529 6.10181 84.2176 5.85077C84.4822 5.59042 84.7894 5.38587 85.1392 5.2371C85.4984 5.07903 85.8765 5 86.2735 5H96.4393C96.8363 5 97.2097 5.07903 97.5594 5.2371C97.9186 5.38587 98.2305 5.59042 98.4952 5.85077C98.7599 6.10181 98.9678 6.404 99.1191 6.75732C99.2703 7.10135 99.3459 7.46862 99.3459 7.85914V22.1409ZM86.2735 7.85914V22.1409H96.4393V7.85914H86.2735Z" fill="white"/>
<path d="M94.8994 6.79107L97.1494 8.06891L87.8973 23.8325L85.6473 22.5547L94.8994 6.79107Z" fill="white"/>
</svg>
