<svg width="184" height="184" viewBox="0 0 184 184" fill="none" xmlns="http://www.w3.org/2000/svg">
<path d="M105.384 0.898438H180.456C181.984 0.898438 183.222 2.13325 183.222 3.65647V118.095C183.222 120.836 179.648 121.898 178.143 119.605L103.07 5.1666C101.867 3.33229 103.187 0.898438 105.384 0.898438Z" fill="#246DFF"/>
<path d="M78.5665 0.898438H3.49381C1.96671 0.898438 0.72876 2.13325 0.72876 3.65647V118.095C0.72876 120.836 4.30287 121.898 5.80754 119.605L80.8803 5.1666C82.0837 3.33229 80.7642 0.898438 78.5665 0.898438Z" fill="#20A34E"/>
<path d="M90.6893 92.5211L5.40652 178.227C3.67468 179.968 4.91061 182.928 7.36901 182.928H176.652C179.1 182.928 180.341 179.988 178.63 178.241L94.6289 92.5361C93.55 91.4353 91.7765 91.4285 90.6893 92.5211Z" fill="#F86606"/>
</svg>
