<svg role="img" viewBox="0 0 24 24" xmlns="http://www.w3.org/2000/svg"><title>Monday</title><path fill="#FF3D57" d="M19.193 18.564c-2.24 0-4.054-2.061-4.054-4.604 0-2.544 1.814-4.604 4.054-4.604 2.24 0 4.054 2.061 4.054 4.604 0 2.543-1.814 4.604-4.054 4.604zM12 21.108c-2.24 0-4.054-2.061-4.054-4.604V4.896c0-2.543 1.814-4.604 4.054-4.604 2.24 0 4.054 2.061 4.054 4.604v11.608c0 2.543-1.814 4.604-4.054 4.604zM4.806 24c-2.24 0-4.054-2.061-4.054-4.604V9.356c0-2.543 1.814-4.604 4.054-4.604 2.24 0 4.054 2.061 4.054 4.604v10.04C8.86 21.938 7.046 24 4.806 24z"/></svg>
