<svg width="40" height="40" viewBox="0 0 40 40" fill="none" xmlns="http://www.w3.org/2000/svg">
<path d="M15.5094 3.15594C15.0249 2.47161 14.4799 1.69039 14.0015 1C10.5738 3.68282 6.95227 6.56548 5.61389 7.60106L8.53895 14.0083L8.80541 13.8509C11.5912 12.2218 13.9288 10.3444 15.5821 6.86223C16.1877 5.54201 16.1393 4.04618 15.5094 3.15594Z" fill="#2E3137"/>
<path d="M16.2967 7.84326L10.6646 25.1635C10.6646 25.1635 9.68963 27.8342 7.49129 28.6336C5.4383 29.3785 2.70098 30.4504 2.70098 30.4504L0 20.7123L9.18698 15.2982C12.1544 13.6328 14.6374 11.6646 16.2967 7.84326Z" fill="#C72127"/>
<path d="M11.9909 34.5321C12.4693 35.7978 13.0568 37.33 13.6079 38.7713C18.2528 37.7236 24.7085 36.2339 27.6578 35.5556L20.6328 23.1407L20.2271 23.2982C16.4239 24.7153 13.7593 26.3262 12.0272 29.8145C11.4204 31.3261 11.4074 33.0113 11.9909 34.5321Z" fill="#2E3137"/>
<path d="M11.355 28.676L17.1143 10.944C17.881 9.09582 19.2011 7.53034 20.8932 6.46253C23.9212 4.60939 28.766 1.54504 28.766 1.54504L39.9999 13.0515L19.6214 21.6207C15.7456 23.159 13.0567 24.8668 11.355 28.676Z" fill="#C72127"/>
</svg>
