<svg width="40" height="40" viewBox="0 0 40 40" fill="none" xmlns="http://www.w3.org/2000/svg">
<mask id="mask0_408_19411" style="mask-type:luminance" maskUnits="userSpaceOnUse" x="0" y="4" width="40" height="32">
<path d="M0 4H40V36H0V4Z" fill="white"/>
</mask>
<g mask="url(#mask0_408_19411)">
<path d="M12.011 32.322H24.432V35.294H12.012V32.322H12.011Z" fill="#FFEEDC"/>
<path d="M7.77896 23.13L3.48996 21.562L3.06596 21.361L1.28296 20.713L1.91996 22.669L5.56996 28.825L10.537 31.558L17.13 32.694L25.308 31.558L28.633 29.271L32.68 25.244L34.406 19.505L31.676 21.562L26.426 23.317L16.366 24.093L7.77896 23.13Z" fill="#FFEEDC"/>
<path d="M32.8829 25.303L32.8679 25.353L32.8309 25.39L28.7839 29.417L28.7699 29.431L28.7549 29.441L25.4299 31.728L25.3889 31.757L25.3389 31.764L17.1599 32.9L17.1279 32.905L17.0949 32.899L10.5009 31.762L10.4659 31.757L10.4359 31.739L5.4189 28.979L5.3889 28.93L1.7389 22.775L1.7269 22.755L1.0839 20.777L0.951904 20.372L3.1389 21.166L3.1489 21.169L3.1589 21.174L3.5759 21.372L7.8289 22.926L16.3699 23.885L26.3829 23.112L31.5759 21.377L34.7929 18.954L32.8829 25.303ZM31.8029 21.728L31.7769 21.748L31.7439 21.759L26.4939 23.514L26.4699 23.522L16.3839 24.301L16.3639 24.302L16.3439 24.3L7.7289 23.334L7.7059 23.324L3.4179 21.757L3.4089 21.753L3.3999 21.75L2.9839 21.552L1.6159 21.055L2.1139 22.585L5.7239 28.671L10.6089 31.359L17.1349 32.484L25.2299 31.359L28.4979 29.111L32.4939 25.135L34.0209 20.057L31.8039 21.727L31.8029 21.728Z" fill="black"/>
<path fill-rule="evenodd" clip-rule="evenodd" d="M5.52904 13.923L2.12304 15.988L0.717041 19.323L3.11504 21.366L14.081 23.816L19.345 23.976L28.909 22.591L33.471 20.05L34.427 18.461L31.944 15.579L30.702 14.879L18.541 13.083L10.931 12.153L5.52904 13.923Z" fill="#3C1D19"/>
<path fill-rule="evenodd" clip-rule="evenodd" d="M27.66 10.407C27.66 10.407 28.303 13.593 28.982 14.25C29.063 14.692 28.925 14.468 28.766 15.002L28.786 15.21H28.327L25.799 14.718L23.5 14.695L21.845 14.128L20.351 13.81L15.315 12.38L12.237 12.721L8.97305 13.198L5.38705 14.695L2.12305 5.07503L6.21405 4.48503L12.518 4.44003L16.558 4.32703L18.282 5.32503L19.799 6.89003L20.903 8.59203L23.683 8.36503L24.626 10.589L27.66 10.407Z" fill="#FFEEDC"/>
<path fill-rule="evenodd" clip-rule="evenodd" d="M7.16004 22.221L6.96304 22.223C3.51504 22.223 0.717041 20.525 0.717041 18.434C0.717041 16.443 3.25404 14.809 6.47304 14.657C7.34104 13.197 9.64604 12.153 12.35 12.153C12.843 12.153 13.322 12.187 13.781 12.253C14.241 12.187 14.72 12.153 15.212 12.153C18.114 12.153 21.162 13.197 21.862 14.825C22.779 14.505 23.502 14.825 24.635 14.825C25.765 14.825 26.561 14.662 27.475 14.98L27.705 14.978C31.152 14.978 33.951 16.675 33.951 18.767C33.951 20.281 32.483 21.589 30.364 22.195C29.22 22.967 27.562 23.453 25.718 23.453C25.618 23.453 25.518 23.451 25.418 23.448C24.482 23.788 23.386 23.984 22.216 23.984C21.4681 23.9859 20.7223 23.903 19.993 23.737C19.05 24.084 17.943 24.283 16.761 24.283C15.548 24.283 14.416 24.073 13.457 23.71C13.056 23.759 12.641 23.785 12.215 23.785C10.138 23.785 8.29604 23.168 7.16004 22.221Z" fill="#EFB877"/>
<path fill-rule="evenodd" clip-rule="evenodd" d="M22.9379 19.13C22.9379 19.13 26.2479 18.88 29.1379 21.897L28.7529 22.125C28.7529 22.125 25.0779 19.457 22.9929 20.002L22.9379 19.13ZM11.6659 19.049C11.6659 19.049 14.6529 17.945 17.9069 21.081L19.5959 20.395C19.5959 20.395 17.1569 16.27 12.8759 18.218L11.6659 19.049ZM3.05789 17.94C3.05789 17.94 4.14189 22.536 15.7249 23.004L15.6669 23.527C15.6669 23.527 6.61889 24.126 1.58789 19.53L1.99589 18.517L3.05789 17.94Z" fill="#DA7930"/>
<path fill-rule="evenodd" clip-rule="evenodd" d="M25.4451 15.5619C25.4451 15.5619 29.6921 16.3469 32.8701 19.8649L33.4711 19.3889C33.4711 19.3889 29.4061 15.3229 25.4451 15.5619ZM25.5301 22.6389C25.5301 22.6389 23.8811 21.1779 20.1251 21.3059L20.9331 20.8879L24.0331 20.8819L26.2601 21.3729L27.3331 22.1259L27.4631 22.5559C27.4631 22.5559 26.9881 22.6059 26.6781 22.6499C26.3671 22.6939 25.8751 22.7899 25.8751 22.7899L25.5301 22.6389ZM11.4031 12.9799C11.4031 12.9799 15.7021 12.5079 19.0561 14.5659L20.7001 14.6639L20.0701 13.6399L17.0371 12.2999C17.0371 12.2999 13.4071 12.1139 13.2851 12.0659C13.1641 12.0179 11.4031 12.9799 11.4031 12.9799Z" fill="#F5E1BE"/>
<path fill-rule="evenodd" clip-rule="evenodd" d="M20.784 9.03896C20.784 9.03896 22.104 12.135 23.03 14.211L21.976 8.70496L20.784 9.03896ZM12.901 32.697C12.901 32.697 12.522 33.942 13.099 34.897L11.415 34.969L10.209 33.805L10.302 31.719L11.259 31.85L12.901 32.697ZM24.522 10.7C24.522 10.7 25.552 12.802 26.48 14.879L25.713 10.366L24.522 10.7Z" fill="#DA7930"/>
<path fill-rule="evenodd" clip-rule="evenodd" d="M13.688 15.541C13.688 15.541 18.667 15.881 21.108 19.924L22.804 20.074L20.929 17.801L18.474 15.691C18.474 15.691 15.302 14.915 14.846 14.942C14.391 14.969 13.688 15.541 13.688 15.541ZM26.524 18.708C26.524 18.708 29.193 19.77 30.164 21.468L31.214 21.216L30.782 20.31L28.337 18.899L26.995 18.359L26.525 18.709L26.524 18.708Z" fill="#F5E1BE"/>
<path fill-rule="evenodd" clip-rule="evenodd" d="M4.10703 22.0499C4.10703 22.0499 5.81902 31.2969 18.123 32.0629L15.41 32.5159L10.663 31.0979L6.69103 29.1699L4.52703 26.9569L2.71903 24.4329L1.49003 21.5399L1.42603 20.2629L4.10703 22.0499Z" fill="#DA7930"/>
<path fill-rule="evenodd" clip-rule="evenodd" d="M18.8279 8.94895C18.8279 8.94895 20.6849 11.5989 21.2549 13.9589L21.7879 13.7219L21.0899 10.6009L20.1329 8.69495L18.8279 8.94895Z" fill="#F5E1BE"/>
<path fill-rule="evenodd" clip-rule="evenodd" d="M27.374 25.213C27.4784 25.0521 27.6417 24.9386 27.8289 24.8969C28.0161 24.8552 28.2122 24.8886 28.375 24.99C28.714 25.2 28.815 25.643 28.602 25.978C28.602 25.978 26.92 28.668 22.542 29.881C22.3574 29.9329 22.1598 29.9098 21.9922 29.8167C21.8246 29.7237 21.7005 29.5681 21.647 29.384C21.6217 29.2931 21.6147 29.198 21.6263 29.1043C21.6379 29.0107 21.668 28.9202 21.7148 28.8382C21.7615 28.7562 21.8241 28.6843 21.8988 28.6266C21.9735 28.5689 22.0588 28.5265 22.15 28.502C25.898 27.464 27.374 25.214 27.374 25.214V25.213Z" fill="#3C1D19"/>
<path fill-rule="evenodd" clip-rule="evenodd" d="M5.18799 12.733C5.18799 12.733 9.46399 10.238 15.831 11.622L5.67799 14.287L5.18799 12.733Z" fill="#DA7930"/>
<path fill-rule="evenodd" clip-rule="evenodd" d="M6.56395 13.393C8.09995 12.469 9.87695 11.734 11.87 11.442C14.5 11.056 16.697 11.47 18.347 12.066C19.42 12.4475 20.4335 12.9795 21.357 13.646C21.617 13.837 21.752 13.959 21.752 13.959C21.7661 13.9718 21.7798 13.9851 21.7929 13.999C22.6408 13.9293 23.4928 13.9273 24.341 13.993C26.8609 14.383 29.033 14.982 30.659 15.727C31.582 16.149 32.32 16.614 32.823 17.122C33.225 17.527 33.47 17.947 33.47 18.397C33.47 18.734 33.333 19.053 33.096 19.363C33.0825 19.3455 33.0698 19.3275 33.0579 19.309C33.0579 19.309 31.3629 16.782 26.4209 15.738C23.3349 15.086 20.957 15.431 19.677 15.818C20.077 16.079 20.447 16.354 20.787 16.631C22.096 16.545 23.855 16.583 25.621 16.981C29.351 17.823 30.931 19.369 32.054 20.299C31.6257 20.5837 31.1752 20.8335 30.707 21.046C29.703 20.196 28.237 19.041 25.298 18.378C24.2984 18.1588 23.2792 18.0416 22.256 18.028C23.014 18.86 23.406 19.491 23.406 19.491C23.4578 19.5741 23.4918 19.667 23.506 19.764C26.13 20.188 27.7759 21.122 28.6989 21.813C28.1129 21.998 27.4869 22.169 26.8239 22.323C25.8619 21.809 24.4779 21.299 22.5739 21.081C19.9589 20.782 18.046 22.291 17.08 23.302C16.4667 23.2975 15.8536 23.2815 15.241 23.254C15.556 22.829 16.7369 21.353 18.6089 20.414C18.1074 19.8061 17.4796 19.3147 16.769 18.974C14.419 20.361 12.757 22.111 12.003 22.994C11.4474 22.9292 10.8932 22.8525 10.341 22.764C10.3501 22.7493 10.3598 22.735 10.37 22.721C10.37 22.721 12.04 20.428 14.932 18.441C14.812 18.4261 14.6916 18.4144 14.571 18.406C13.121 18.304 11.791 18.995 10.706 19.828C9.57595 20.697 8.70395 21.738 8.23595 22.356C7.73128 22.2413 7.23006 22.1119 6.73295 21.968C7.07095 21.48 8.20795 19.932 9.81495 18.698C11.173 17.655 12.859 16.85 14.674 16.978C17.761 17.194 19.386 18.983 20.01 19.872C20.568 19.7166 21.1429 19.6299 21.722 19.614C20.681 18.278 17.85 15.284 13.537 15.53C8.45395 16.152 5.52095 20.104 4.75195 21.282C4.58661 21.2134 4.42258 21.1417 4.25995 21.067C3.98108 20.9402 3.70752 20.8021 3.43995 20.653C4.18495 19.485 7.50795 14.813 13.384 14.105L13.428 14.101C15.0166 14.0049 16.605 14.2926 18.059 14.94C18.352 14.77 18.9389 14.525 19.7759 14.321C19.3389 14.06 18.766 13.761 18.069 13.494C16.588 12.925 14.551 12.497 12.083 12.858C10.21 13.133 8.54695 13.838 7.11795 14.718C4.67395 16.223 2.91395 18.246 1.95495 19.522C1.63795 19.164 1.44995 18.792 1.44995 18.397C1.44995 18.008 1.63195 17.642 1.94095 17.288C1.95924 17.2673 1.97757 17.2466 1.99595 17.226C3.11395 15.982 4.65195 14.541 6.56295 13.393H6.56395Z" fill="#3C1D19"/>
<path fill-rule="evenodd" clip-rule="evenodd" d="M28.567 13.452C30.27 13.943 31.689 14.542 32.727 15.215C34.175 16.154 34.923 17.268 34.923 18.397C34.923 26.709 27.124 33.51 17.461 33.51C8.856 33.51 1.729 28.116 0.272001 21.064C0.0908264 20.1866 -0.000312643 19.293 8.05756e-07 18.397C8.05756e-07 17.267 0.748001 16.154 2.197 15.215C2.967 14.715 3.949 14.256 5.101 13.852C5.561 13.689 5.661 13.966 5.243 14.271C4.04008 15.158 2.93398 16.1692 1.943 17.288C1.633 17.642 1.451 18.008 1.451 18.398C1.451 18.792 1.64 19.164 1.957 19.522C2.001 19.572 2.048 19.622 2.098 19.672C2.441 20.019 2.895 20.346 3.441 20.652C3.86611 20.887 4.30452 21.097 4.754 21.281C5.354 21.529 6.016 21.759 6.734 21.968C7.211 22.107 7.714 22.236 8.237 22.356C8.93444 22.5143 9.63681 22.6501 10.343 22.763C10.881 22.85 11.435 22.927 12.005 22.994C13.04 23.116 14.123 23.204 15.242 23.254C15.9815 23.2874 16.7217 23.304 17.462 23.304C20.942 23.304 24.172 22.944 26.826 22.324C27.457 22.1778 28.0821 22.0073 28.7 21.813C29.3847 21.5995 30.0553 21.3433 30.708 21.046C31.218 20.81 31.669 20.561 32.056 20.299C32.352 20.099 32.61 19.889 32.825 19.673C32.926 19.57 33.018 19.467 33.098 19.363C33.335 19.053 33.472 18.733 33.472 18.397C33.472 17.947 33.227 17.527 32.825 17.121C32.322 16.614 31.583 16.149 30.661 15.727C30.0443 15.4479 29.4115 15.2058 28.766 15.002L28.626 13.652L28.567 13.452ZM33.107 21.317C32.9828 21.4079 32.8561 21.4953 32.727 21.579C29.864 23.433 24.104 24.736 17.461 24.736C10.819 24.736 5.059 23.433 2.197 21.579C2.06779 21.4954 1.94107 21.4081 1.817 21.317C3.384 27.484 9.817 32.077 17.461 32.077C25.107 32.077 31.539 27.484 33.107 21.317Z" fill="#3C1D19"/>
<path fill-rule="evenodd" clip-rule="evenodd" d="M13.824 5.242L14.663 8.005C14.8197 8.51018 15.1409 8.94841 15.5754 9.24995C16.01 9.55149 16.5329 9.699 17.061 9.669L20.274 9.499L20.001 8.653L18.353 8.82L16.366 8.792L15.858 7.445L15.114 5.13L13.824 5.242Z" fill="#DA7930"/>
<path fill-rule="evenodd" clip-rule="evenodd" d="M16.1951 5.429C16.1951 5.429 18.0381 6.047 18.6531 7.903L20.0331 8.016L19.3031 6.796L18.1771 5.91L16.8511 5.37L16.1951 5.429Z" fill="#F5E1BE"/>
<path d="M27.7029 13.036L35.0659 5.14197L37.0029 7.01497L28.5959 14.428L27.7029 13.036Z" fill="#3C1D19"/>
<path fill-rule="evenodd" clip-rule="evenodd" d="M23.77 31.767C23.77 31.371 24.096 31.05 24.496 31.05C24.896 31.05 25.222 31.3711 25.222 31.7661V34.126C25.222 35.148 24.372 35.984 23.315 35.984H11.573C10.517 35.984 9.66602 35.148 9.66602 34.126V31.7661C9.66602 31.3711 9.99102 31.05 10.392 31.05C10.792 31.05 11.117 31.3711 11.117 31.7661V34.126C11.117 34.366 11.325 34.552 11.573 34.552H23.315C23.562 34.552 23.77 34.365 23.77 34.126V31.767Z" fill="#3C1D19"/>
<path fill-rule="evenodd" clip-rule="evenodd" d="M24.6269 11.33C24.4356 11.3308 24.2519 11.2558 24.1158 11.1214C23.9798 10.987 23.9025 10.8042 23.9009 10.613C23.9009 10.218 24.2259 9.89697 24.6269 9.89697H27.7469C28.0509 9.89697 28.3219 10.084 28.4269 10.365C28.4269 10.365 29.2369 12.525 29.6969 15.085C29.7131 15.1781 29.7107 15.2735 29.6899 15.3658C29.669 15.458 29.6302 15.5452 29.5755 15.6223C29.5209 15.6994 29.4515 15.765 29.3714 15.8152C29.2914 15.8655 29.2021 15.8994 29.1089 15.915C28.9204 15.9492 28.726 15.9073 28.5682 15.7987C28.4105 15.69 28.3021 15.5233 28.2669 15.335C28.0157 13.9769 27.6692 12.6383 27.2299 11.329H24.6259L24.6269 11.33Z" fill="#3D1B14"/>
<path fill-rule="evenodd" clip-rule="evenodd" d="M20.5099 9.162C20.3188 9.16307 20.135 9.08829 19.9989 8.95407C19.8628 8.81985 19.7855 8.63714 19.7839 8.446C19.7839 8.05 20.1089 7.729 20.5099 7.729H23.7839C24.0839 7.729 24.3539 7.912 24.4619 8.189C24.4619 8.189 25.5439 10.974 26.2579 14.322C26.277 14.4145 26.2777 14.5099 26.2598 14.6027C26.2419 14.6955 26.2059 14.7838 26.1537 14.8626C26.1016 14.9414 26.0344 15.0092 25.956 15.0619C25.8776 15.1147 25.7896 15.1514 25.6969 15.17C25.5096 15.2099 25.3142 15.1741 25.1531 15.0706C24.992 14.967 24.8784 14.804 24.8369 14.617C24.4346 12.7671 23.9135 10.945 23.2769 9.162H20.5099Z" fill="#3D1B14"/>
<path fill-rule="evenodd" clip-rule="evenodd" d="M16.1409 5.43296C15.9498 5.43834 15.7643 5.36766 15.6252 5.23642C15.486 5.10518 15.4047 4.92412 15.3989 4.73296C15.3973 4.6384 15.4144 4.54446 15.4491 4.4565C15.4838 4.36853 15.5356 4.28827 15.6013 4.2203C15.667 4.15232 15.7455 4.09796 15.8323 4.06033C15.9191 4.02269 16.0124 4.00252 16.1069 4.00096C16.1069 4.00096 19.4749 3.84596 21.1669 8.19496C21.6029 9.31396 22.6229 12.709 23.0099 14.302C23.0319 14.394 23.0353 14.4894 23.0202 14.5828C23.005 14.6761 22.9715 14.7656 22.9215 14.8459C22.8716 14.9262 22.8063 14.9959 22.7293 15.0508C22.6523 15.1058 22.5651 15.1449 22.4729 15.166C22.2868 15.2107 22.0905 15.1801 21.9269 15.0808C21.7632 14.9816 21.6453 14.8217 21.5989 14.636C21.2229 13.09 20.2359 9.79496 19.8129 8.70896C18.5449 5.45096 16.1409 5.43296 16.1409 5.43296ZM1.04293 5.11296C0.990176 5.03471 0.95355 4.94673 0.935193 4.85417C0.916837 4.7616 0.917117 4.66631 0.936018 4.57385C0.954918 4.48139 0.992061 4.39363 1.04527 4.3157C1.09849 4.23777 1.1667 4.17122 1.24593 4.11996C1.40638 4.01483 1.60168 3.97689 1.78982 4.0143C1.97795 4.0517 2.14389 4.16146 2.25193 4.31996C2.25193 4.31996 5.49993 9.14296 6.10393 14.938C6.11317 15.0321 6.10376 15.1271 6.07623 15.2176C6.0487 15.308 6.00359 15.3922 5.94349 15.4652C5.88339 15.5382 5.80948 15.5986 5.72599 15.643C5.6425 15.6874 5.55106 15.7149 5.45693 15.724C5.26675 15.7442 5.0763 15.6883 4.92716 15.5686C4.77802 15.4489 4.68231 15.275 4.66093 15.085C4.09293 9.64296 1.04293 5.11296 1.04293 5.11296Z" fill="#3D1B14"/>
<path fill-rule="evenodd" clip-rule="evenodd" d="M14.5379 4.91298C14.5121 4.82204 14.5046 4.72688 14.5158 4.63302C14.527 4.53916 14.5567 4.44845 14.6032 4.36615C14.6497 4.28385 14.7121 4.21158 14.7867 4.15354C14.8613 4.09549 14.9467 4.05281 15.0379 4.02798C15.2221 3.9756 15.4195 3.99799 15.5872 4.0903C15.755 4.1826 15.8796 4.33737 15.9339 4.52098L16.8619 7.73498H19.9649C20.3649 7.73498 20.6909 8.05498 20.6909 8.45098C20.6902 8.54566 20.6709 8.63929 20.6341 8.72651C20.5972 8.81374 20.5436 8.89285 20.4762 8.95934C20.4088 9.02583 20.3289 9.07839 20.2412 9.11401C20.1535 9.14964 20.0596 9.16763 19.9649 9.16698H16.3139C16.1569 9.1677 16.0039 9.11737 15.878 9.02358C15.7521 8.92979 15.6601 8.79761 15.6159 8.64698L14.5379 4.91298Z" fill="#3D1B14"/>
<path fill-rule="evenodd" clip-rule="evenodd" d="M16.1241 4.00003C16.5241 4.00003 16.8491 4.32103 16.8491 4.71703C16.8478 4.90807 16.7707 5.09079 16.6348 5.22503C16.4988 5.35928 16.3152 5.43409 16.1241 5.43303H1.64812C1.45698 5.43409 1.27321 5.35932 1.13712 5.2251C1.00102 5.09088 0.923705 4.90816 0.922119 4.71703C0.922511 4.62222 0.941623 4.52842 0.978357 4.44102C1.01509 4.35362 1.06873 4.27434 1.13618 4.20772C1.20364 4.1411 1.28358 4.08846 1.37144 4.05282C1.45929 4.01717 1.55332 3.99923 1.64812 4.00003H16.1241Z" fill="#3D1B14"/>
<path fill-rule="evenodd" clip-rule="evenodd" d="M39.756 11.398L28.243 17.807C27.693 17.574 27.07 17.357 26.363 17.165L38.635 9.32898L39.756 11.398Z" fill="#3C1D19"/>
<path fill-rule="evenodd" clip-rule="evenodd" d="M33.0959 19.36L33.0989 19.364L33.1059 19.361L33.7639 19.007L33.7939 17.992L33.4719 16.996L32.5769 16.44L31.4889 15.883L30.9549 15.893L30.9849 16.43L31.9939 17.297L32.5569 18.218L33.0119 18.753L33.1509 19.133L33.0959 19.36ZM5.03689 15.255L5.03989 15.25L5.03189 15.246L4.23389 14.926L2.80689 15.634L1.56989 16.634L1.20989 17.817L0.941895 19.169L1.20389 19.629L1.87789 19.713L2.67589 17.708L3.69589 16.55L4.22989 15.767L4.69589 15.371L5.03589 15.255H5.03689Z" fill="#3C1D19"/>
</g>
</svg>
