<svg width="40" height="40" viewBox="0 0 40 40" fill="none" xmlns="http://www.w3.org/2000/svg">
<g clip-path="url(#clip0_408_19470)">
<path d="M39.8741 8.45975C39.5417 9.25394 38.968 11.2517 31.4074 23.6893C23.8468 36.127 21.0094 39.4402 21.0094 39.4402C20.901 39.6117 20.7505 39.7516 20.5721 39.8496C20.3937 39.9475 20.1942 40 19.9913 40C19.7884 40 19.589 39.9475 19.4105 39.8496C19.2321 39.7516 19.0817 39.6117 18.9732 39.4402C18.9732 39.4402 16.0973 36.1235 8.57174 23.6893C1.03566 11.2587 0.388414 9.17347 0.108523 8.45975C-0.171369 7.74602 0.0630405 7.00781 1.13013 6.79439C1.44501 6.72792 2.08176 6.57747 3.15584 6.38855C4.25442 8.44225 6.12269 11.7345 9.37643 17.1084C16.3772 28.6644 19.0432 31.7502 19.0432 31.7502C19.1446 31.9112 19.2846 32.0406 19.4525 32.1316C19.6205 32.2225 19.8059 32.268 19.9948 32.268C20.1837 32.268 20.3692 32.219 20.5371 32.1281C20.7015 32.0371 20.8415 31.9042 20.943 31.7432C20.943 31.7432 23.5879 28.6644 30.6097 17.1014C33.8879 11.703 35.7597 8.42126 36.8443 6.37805C37.9359 6.56698 38.5796 6.72442 38.863 6.78739C39.8181 6.99731 40.2065 7.66905 39.8776 8.46324L39.8741 8.45975Z" fill="#89D4F7"/>
<path d="M38.4712 2.94236C38.0024 4.1214 37.4531 5.26896 36.8339 6.37803C35.7493 8.42124 33.881 11.6995 30.6028 17.1014C23.5775 28.6644 20.943 31.7432 20.943 31.7432C20.8416 31.9006 20.7016 32.0336 20.5372 32.1246C20.3728 32.2155 20.1873 32.261 19.9984 32.261C19.8095 32.261 19.624 32.212 19.4596 32.1246C19.2952 32.0336 19.1552 31.9041 19.0538 31.7432C19.0538 31.7432 16.3878 28.6574 9.38701 17.1014C6.13327 11.731 4.265 8.43523 3.16642 6.38153C2.53667 5.27596 1.98738 4.1284 1.52206 2.94236C1.25266 2.27412 1.48008 1.59188 2.46669 1.38546C3.45331 1.17904 8.02604 0 20.0054 0C31.9848 0 36.6484 1.18954 37.5441 1.38546C38.4398 1.58139 38.7931 2.20415 38.4817 2.94236H38.4712Z" fill="#2C68F5"/>
</g>
<defs>
<clipPath id="clip0_408_19470">
<rect width="40" height="40" fill="white"/>
</clipPath>
</defs>
</svg>
