<svg viewBox="0 0 10 11" fill="none" xmlns="http://www.w3.org/2000/svg">
<path d="M6.69752 10.4505C5.99179 10.483 5.2749 10.5 4.48543 10.5C3.69597 10.5 2.97908 10.483 2.27335 10.4505C1.43465 10.4118 0.745449 9.75749 0.633418 8.92237C0.560303 8.37734 0.5 7.81881 0.5 7.25C0.5 6.68119 0.560302 6.12266 0.633418 5.57763C0.745448 4.74251 1.43465 4.08824 2.27335 4.04955C2.97908 4.01698 3.69597 4 4.48544 4C5.2749 4 5.99179 4.01698 6.69752 4.04955C7.22723 4.07399 7.69731 4.34398 8 4.75" stroke="#0284C7" stroke-linecap="round"/>
<path d="M7.5 6.98901C7.5 6.4428 7.94772 6 8.5 6C9.05228 6 9.5 6.4428 9.5 6.98901C9.5 7.1859 9.44183 7.36935 9.34156 7.52347C9.0427 7.98281 8.5 8.42082 8.5 8.96703V9.21429M8.5 10.5H8.50599" stroke="#0284C7" stroke-linecap="round" stroke-linejoin="round"/>
<path d="M2.25 4L2.25 2.75C2.25 1.50736 3.25736 0.5 4.5 0.5C5.74264 0.5 6.75 1.50736 6.75 2.75V4" stroke="#0284C7" stroke-linecap="round" stroke-linejoin="round"/>
<path d="M5 7.245V7.25" stroke="#0284C7" stroke-width="2" stroke-linecap="round" stroke-linejoin="round"/>
<path d="M3 7.245V7.25" stroke="#0284C7" stroke-width="2" stroke-linecap="round" stroke-linejoin="round"/>
</svg>
